<svg width="32" height="32" viewBox="0 0 32 32" fill="none" xmlns="http://www.w3.org/2000/svg">
<path fill-rule="evenodd" clip-rule="evenodd" d="M1.66602 15.9998C1.66602 23.916 8.08327 30.3332 15.9993 30.3332C23.9155 30.3332 30.3327 23.916 30.3327 15.9998C30.3327 8.08376 23.9155 1.6665 15.9993 1.6665C8.08327 1.6665 1.66602 8.08376 1.66602 15.9998ZM22.2336 11.017C22.7764 11.5146 22.8131 12.358 22.3156 12.9008L14.9823 20.9008C14.7364 21.1689 14.3919 21.3249 14.0283 21.3329C13.6647 21.3408 13.3137 21.1998 13.0565 20.9426L9.7232 17.6093C9.20251 17.0886 9.20251 16.2444 9.7232 15.7237C10.2439 15.203 11.0881 15.203 11.6088 15.7237L13.9575 18.0724L20.3497 11.0989C20.8473 10.556 21.6908 10.5194 22.2336 11.017Z" fill="#34C759"/>
</svg>
