<svg width="99" height="104" viewBox="0 0 99 104" fill="none" xmlns="http://www.w3.org/2000/svg">
<rect x="0.833008" y="0.5" width="98" height="103" rx="49" fill="url(#paint0_linear_169_12019)" fill-opacity="0.05"/>
<rect x="12.833" y="12.5" width="74" height="79" rx="37" fill="url(#paint1_linear_169_12019)" fill-opacity="0.1"/>
<rect x="13.333" y="13" width="73" height="78" rx="36.5" stroke="url(#paint2_linear_169_12019)" stroke-opacity="0.2"/>
<path d="M49.833 32.5C40.4452 32.5 32.833 35.9905 32.833 40.3V63.7C32.833 68.0095 40.4452 71.5 49.833 71.5C59.2208 71.5 66.833 68.0095 66.833 63.7V40.3C66.833 35.9905 59.2208 32.5 49.833 32.5ZM49.833 36.4C57.9363 36.4 62.5075 39.1495 63.0363 40.3C62.5075 41.4505 57.9363 44.2 49.833 44.2C41.7297 44.2 37.1586 41.4505 36.6297 40.3C37.1586 39.1495 41.7297 36.4 49.833 36.4ZM63.0552 63.7C62.5263 64.8505 57.9363 67.6 49.833 67.6C41.7297 67.6 37.1397 64.8505 36.6108 63.7V56.8945C37.2152 57.2455 37.8763 57.5575 38.613 57.85C41.5975 59.059 45.5452 59.8 49.833 59.8C54.1208 59.8 58.0686 59.059 61.053 57.85C61.7897 57.5575 62.4508 57.2455 63.0552 56.8945V63.7ZM63.0552 52C62.5263 53.1505 57.9363 55.9 49.833 55.9C41.7297 55.9 37.1397 53.1505 36.6108 52V45.1945C37.2152 45.5455 37.8763 45.8575 38.613 46.15C41.5975 47.359 45.5452 48.1 49.833 48.1C54.1208 48.1 58.0686 47.359 61.053 46.15C61.7897 45.8575 62.4508 45.5455 63.0552 45.1945V52Z" fill="#FF9900"/>
<defs>
<linearGradient id="paint0_linear_169_12019" x1="49.833" y1="0.5" x2="49.833" y2="103.5" gradientUnits="userSpaceOnUse">
<stop stop-color="#CAFF33"/>
<stop offset="1" stop-color="#CAFF33" stop-opacity="0"/>
</linearGradient>
<linearGradient id="paint1_linear_169_12019" x1="49.833" y1="-39.8108" x2="49.833" y2="216.405" gradientUnits="userSpaceOnUse">
<stop stop-color="#CAFF33"/>
<stop offset="0.467671" stop-color="#CAFF33" stop-opacity="0"/>
</linearGradient>
<linearGradient id="paint2_linear_169_12019" x1="49.833" y1="-124.682" x2="49.833" y2="163.027" gradientUnits="userSpaceOnUse">
<stop stop-color="#CAFF33"/>
<stop offset="0.716291" stop-color="#CAFF33" stop-opacity="0"/>
</linearGradient>
</defs>
</svg>
