<svg width="33" height="32" viewBox="0 0 33 32" fill="none" xmlns="http://www.w3.org/2000/svg">
<path d="M12.6258 28.0077C11.7874 27.9623 10.9985 27.5967 10.4218 26.9864C9.73195 26.3227 9.11633 25.5859 8.58582 24.789C7.75713 23.6024 7.10208 22.3035 6.64049 20.9317C6.1181 19.4559 5.84328 17.9038 5.82716 16.3384C5.78657 14.8023 6.16697 13.2844 6.92716 11.949C7.48392 10.9865 8.27807 10.1827 9.23382 9.61437C10.179 9.04846 11.2576 8.74384 12.3592 8.73171C13.1896 8.78083 14.0056 8.97064 14.7725 9.29304C15.3845 9.56237 16.0272 9.75171 16.6872 9.85571C17.4152 9.70319 18.1266 9.47991 18.8112 9.18904C19.6214 8.87268 20.4792 8.69552 21.3485 8.66504C21.4645 8.66504 21.5792 8.66504 21.6898 8.67837C23.5965 8.73304 25.3698 9.66904 26.4898 11.2117C25.6157 11.6792 24.8884 12.38 24.3887 13.236C23.889 14.0921 23.6364 15.07 23.6592 16.061C23.6504 16.8188 23.8024 17.5698 24.1051 18.2646C24.4078 18.9594 24.8543 19.5821 25.4152 20.0917C25.9258 20.5781 26.5203 20.9679 27.1698 21.2424C27.0365 21.6424 26.8832 22.029 26.7205 22.4184C26.3512 23.2787 25.8955 24.0994 25.3605 24.8677C24.8546 25.6374 24.2657 26.3492 23.6045 26.9904C23.0013 27.5889 22.1973 27.942 21.3485 27.981C20.629 27.9492 19.9221 27.7804 19.2658 27.4837C18.5581 27.1754 17.7975 27.0065 17.0258 26.9864C16.2324 27.002 15.4493 27.1699 14.7192 27.481C14.0886 27.7656 13.4148 27.9427 12.7258 28.005L12.6258 28.0077ZM16.8258 8.66504C16.7258 8.66504 16.6258 8.66504 16.5258 8.65304C16.5048 8.49433 16.4937 8.33447 16.4925 8.17437C16.5361 6.84255 17.0566 5.57069 17.9592 4.59037C18.464 4.02698 19.0759 3.56966 19.7592 3.24504C20.3959 2.91724 21.0918 2.72005 21.8058 2.66504C21.8258 2.83971 21.8258 3.01037 21.8258 3.17304C21.8071 4.48393 21.3145 5.74374 20.4392 6.71971C20.0153 7.288 19.4722 7.75663 18.848 8.0927C18.2238 8.42876 17.5336 8.62412 16.8258 8.66504Z" fill="white"/>
</svg>
