<svg width="99" height="99" viewBox="0 0 99 99" fill="none" xmlns="http://www.w3.org/2000/svg">
<rect x="0.5" y="0.5" width="98" height="98" rx="49" fill="url(#paint0_linear_169_12008)" fill-opacity="0.05"/>
<rect x="12.5" y="12.5" width="74" height="74" rx="37" fill="url(#paint1_linear_169_12008)" fill-opacity="0.1"/>
<rect x="13" y="13" width="73" height="73" rx="36.5" stroke="url(#paint2_linear_169_12008)" stroke-opacity="0.2"/>
<path d="M35.041 64.5L57.265 30.9H64.417L41.953 64.5H35.041ZM37.201 48.708C35.569 48.708 34.113 48.308 32.833 47.508C31.553 46.676 30.545 45.556 29.809 44.148C29.105 42.74 28.753 41.14 28.753 39.348C28.753 37.524 29.105 35.908 29.809 34.5C30.545 33.06 31.553 31.94 32.833 31.14C34.113 30.34 35.569 29.94 37.201 29.94C38.865 29.94 40.321 30.34 41.569 31.14C42.849 31.94 43.841 33.06 44.545 34.5C45.249 35.908 45.601 37.524 45.601 39.348C45.601 41.14 45.233 42.74 44.497 44.148C43.761 45.556 42.753 46.676 41.473 47.508C40.225 48.308 38.801 48.708 37.201 48.708ZM37.201 43.764C37.745 43.764 38.193 43.588 38.545 43.236C38.929 42.884 39.217 42.372 39.409 41.7C39.601 41.028 39.697 40.244 39.697 39.348C39.697 38.452 39.601 37.668 39.409 36.996C39.217 36.324 38.929 35.812 38.545 35.46C38.193 35.076 37.745 34.884 37.201 34.884C36.689 34.884 36.241 35.076 35.857 35.46C35.473 35.812 35.169 36.324 34.945 36.996C34.753 37.668 34.657 38.452 34.657 39.348C34.657 40.244 34.753 41.028 34.945 41.7C35.137 42.372 35.425 42.884 35.809 43.236C36.225 43.588 36.689 43.764 37.201 43.764ZM62.785 64.98C61.153 64.98 59.697 64.564 58.417 63.732C57.137 62.9 56.129 61.796 55.393 60.42C54.689 59.012 54.337 57.412 54.337 55.62C54.337 53.796 54.689 52.18 55.393 50.772C56.097 49.332 57.089 48.212 58.369 47.412C59.649 46.612 61.121 46.212 62.785 46.212C64.449 46.212 65.905 46.612 67.153 47.412C68.433 48.212 69.425 49.332 70.129 50.772C70.833 52.18 71.185 53.796 71.185 55.62C71.185 57.38 70.817 58.964 70.081 60.372C69.345 61.78 68.337 62.9 67.057 63.732C65.809 64.564 64.385 64.98 62.785 64.98ZM62.785 60.036C63.329 60.036 63.777 59.86 64.129 59.508C64.513 59.124 64.801 58.612 64.993 57.972C65.185 57.3 65.281 56.516 65.281 55.62C65.281 54.724 65.185 53.94 64.993 53.268C64.801 52.596 64.513 52.084 64.129 51.732C63.777 51.348 63.329 51.156 62.785 51.156C62.241 51.156 61.777 51.332 61.393 51.684C61.009 52.036 60.705 52.564 60.481 53.268C60.289 53.94 60.193 54.724 60.193 55.62C60.193 56.516 60.289 57.3 60.481 57.972C60.705 58.612 61.009 59.124 61.393 59.508C61.777 59.86 62.241 60.036 62.785 60.036Z" fill="#FF9900"/>
<defs>
<linearGradient id="paint0_linear_169_12008" x1="49.5" y1="0.5" x2="49.5" y2="98.5" gradientUnits="userSpaceOnUse">
<stop stop-color="#CAFF33"/>
<stop offset="1" stop-color="#CAFF33" stop-opacity="0"/>
</linearGradient>
<linearGradient id="paint1_linear_169_12008" x1="49.5" y1="-36.5" x2="49.5" y2="203.5" gradientUnits="userSpaceOnUse">
<stop stop-color="#CAFF33"/>
<stop offset="0.467671" stop-color="#CAFF33" stop-opacity="0"/>
</linearGradient>
<linearGradient id="paint2_linear_169_12008" x1="49.5" y1="-116" x2="49.5" y2="153.5" gradientUnits="userSpaceOnUse">
<stop stop-color="#CAFF33"/>
<stop offset="0.716291" stop-color="#CAFF33" stop-opacity="0"/>
</linearGradient>
</defs>
</svg>
