<svg width="19" height="13" viewBox="0 0 19 13" fill="none" xmlns="http://www.w3.org/2000/svg">
<path d="M3.87858 10.0058C3.82766 10.0631 3.80221 10.0917 3.80323 10.1257C3.80426 10.1597 3.83126 10.1868 3.88544 10.241L4.71069 11.0662L4.72355 11.079C4.77189 11.127 4.86344 11.2181 4.93227 11.3095C4.98695 11.3823 5.27547 11.7722 5.06992 12.2685C4.86438 12.7648 4.38455 12.8365 4.29447 12.8492C4.18115 12.8653 4.05198 12.8649 3.98392 12.8647L2.58609 12.8647C2.21375 12.8647 1.85195 12.8648 1.55357 12.8247C1.21714 12.7795 0.833229 12.6693 0.514372 12.3504C0.195513 12.0315 0.0852852 11.6476 0.0400276 11.3112C-8.7738e-05 11.0128 -1.90735e-06 10.651 8.39233e-05 10.2788V8.8808C-0.000173569 8.81274 -0.000514984 8.68355 0.0155144 8.57028C0.028286 8.4802 0.0999432 8.00037 0.59623 7.79482C1.09252 7.58928 1.48252 7.8778 1.5552 7.93248C1.64666 8.00131 1.73769 8.09285 1.78569 8.1412L1.79855 8.15405L2.42829 8.78381C2.48863 8.84411 2.51872 8.87424 2.55575 8.87316C2.59269 8.87207 2.62098 8.84021 2.67763 8.77649L6.87935 4.04953C7.10933 3.79076 7.33398 3.5379 7.54784 3.35284C7.78973 3.14361 8.1049 2.9415 8.52644 2.90567C8.9479 2.86993 9.29264 3.01599 9.56633 3.1815C9.80839 3.32782 10.0724 3.53919 10.3426 3.75545L12.1945 5.23693C12.2971 5.31905 12.3992 5.40468 12.5041 5.48619C12.6297 5.58391 12.6926 5.63276 12.7886 5.62745C12.8847 5.62205 12.9418 5.56659 13.0559 5.45568C13.1511 5.36302 13.2431 5.26659 13.336 5.17368L17.3939 1.11578C17.7287 0.781068 18.2714 0.781068 18.6061 1.11578C18.9409 1.4505 18.9409 1.99324 18.6061 2.32796L14.5177 6.41636C14.2863 6.64788 14.0588 6.87545 13.8448 7.04088C13.602 7.22842 13.2916 7.40551 12.8884 7.42779C12.4851 7.45017 12.1571 7.30848 11.8951 7.14888C11.6641 7.00814 11.4129 6.80705 11.1573 6.60245L9.30687 5.12216C9.19819 5.03516 9.09002 4.9443 8.97876 4.8579C8.84616 4.75496 8.7799 4.70345 8.67979 4.71202C8.57967 4.7205 8.52302 4.78239 8.4097 4.90625C8.31456 5.01013 8.22336 5.11796 8.13078 5.22202L3.87858 10.0058Z" fill="#FF3B30"/>
</svg>
