<svg width="115" height="114" viewBox="0 0 115 114" fill="none" xmlns="http://www.w3.org/2000/svg">
<rect x="0.499023" width="114" height="114" rx="57" fill="url(#paint0_linear_169_12028)" fill-opacity="0.05"/>
<rect x="12.499" y="12" width="90" height="90" rx="45" fill="url(#paint1_linear_169_12028)" fill-opacity="0.1"/>
<rect x="12.999" y="12.5" width="89" height="89" rx="44.5" stroke="url(#paint2_linear_169_12028)" stroke-opacity="0.2"/>
<path d="M40.832 48.6665H74.1654M40.832 48.6665V67.0002C40.832 69.3338 40.832 70.5 41.2862 71.3913C41.6856 72.1753 42.3226 72.8133 43.1066 73.2128C43.997 73.6665 45.1633 73.6665 47.4923 73.6665H67.5051C69.8341 73.6665 70.9987 73.6665 71.8891 73.2128C72.6731 72.8133 73.3122 72.1753 73.7117 71.3913C74.1654 70.5008 74.1654 69.3363 74.1654 67.0073V48.6665M40.832 48.6665V47.0002C40.832 44.6667 40.832 43.499 41.2862 42.6077C41.6856 41.8237 42.3226 41.1868 43.1066 40.7873C43.9979 40.3332 45.1656 40.3332 47.4991 40.3332H49.1654M74.1654 48.6665V46.9934C74.1654 44.6644 74.1654 43.4982 73.7117 42.6077C73.3122 41.8237 72.6731 41.1868 71.8891 40.7873C70.9978 40.3332 69.8327 40.3332 67.4991 40.3332H65.832M49.1654 40.3332H65.832M49.1654 40.3332V36.1665M65.832 40.3332V36.1665M56.9779 65.3332C57.2655 65.3332 57.4987 65.1 57.4987 64.8123V57.5207C57.4987 57.233 57.2655 56.9998 56.9779 56.9998H49.6862C49.3986 56.9998 49.1654 57.233 49.1654 57.5207V64.8123C49.1654 65.1 49.3986 65.3332 49.6862 65.3332H56.9779Z" stroke="#FF9900" stroke-width="3" stroke-linecap="round" stroke-linejoin="round"/>
<defs>
<linearGradient id="paint0_linear_169_12028" x1="57.499" y1="0" x2="57.499" y2="114" gradientUnits="userSpaceOnUse">
<stop stop-color="#CAFF33"/>
<stop offset="1" stop-color="#CAFF33" stop-opacity="0"/>
</linearGradient>
<linearGradient id="paint1_linear_169_12028" x1="57.499" y1="-47.5946" x2="57.499" y2="244.297" gradientUnits="userSpaceOnUse">
<stop stop-color="#CAFF33"/>
<stop offset="0.467671" stop-color="#CAFF33" stop-opacity="0"/>
</linearGradient>
<linearGradient id="paint2_linear_169_12028" x1="57.499" y1="-144.284" x2="57.499" y2="183.486" gradientUnits="userSpaceOnUse">
<stop stop-color="#CAFF33"/>
<stop offset="0.716291" stop-color="#CAFF33" stop-opacity="0"/>
</linearGradient>
</defs>
</svg>
