<svg width="18" height="18" viewBox="0 0 18 18" fill="none" xmlns="http://www.w3.org/2000/svg">
<path fill-rule="evenodd" clip-rule="evenodd" d="M11.8875 1.87561C12.3608 1.87561 12.8333 1.94236 13.2825 2.09311C16.0508 2.99311 17.0483 6.03061 16.215 8.68561C15.7425 10.0424 14.97 11.2806 13.9583 12.2924C12.51 13.6949 10.9208 14.9399 9.21001 16.0124L9.02251 16.1256L8.82751 16.0049C7.11076 14.9399 5.51251 13.6949 4.05076 12.2849C3.04576 11.2731 2.27251 10.0424 1.79251 8.68561C0.945012 6.03061 1.94251 2.99311 4.74076 2.07736C4.95826 2.00236 5.18251 1.94986 5.40751 1.92061H5.49751C5.70826 1.88986 5.91751 1.87561 6.12751 1.87561H6.21001C6.68251 1.88986 7.14001 1.97236 7.58326 2.12311H7.62751C7.65751 2.13736 7.68001 2.15311 7.69501 2.16736C7.86076 2.22061 8.01751 2.28061 8.16751 2.36311L8.45251 2.49061C8.52138 2.52734 8.59868 2.58346 8.66548 2.63196C8.70781 2.66269 8.74592 2.69036 8.77501 2.70811C8.78725 2.71533 8.79969 2.72259 8.81223 2.72991C8.87654 2.76745 8.94353 2.80655 9.00001 2.84986C9.83326 2.21311 10.845 1.86811 11.8875 1.87561ZM13.8825 7.27561C14.19 7.26736 14.4525 7.02061 14.475 6.70486V6.61561C14.4975 5.56486 13.8608 4.61311 12.8925 4.24561C12.585 4.13986 12.2475 4.30561 12.135 4.62061C12.03 4.93561 12.195 5.28061 12.51 5.39236C12.9908 5.57236 13.3125 6.04561 13.3125 6.56986V6.59311C13.2983 6.76486 13.35 6.93061 13.455 7.05811C13.56 7.18561 13.7175 7.25986 13.8825 7.27561Z" fill="white"/>
</svg>
