<svg width="1231" height="807" viewBox="0 0 1231 807" fill="none" xmlns="http://www.w3.org/2000/svg">
<g clip-path="url(#clip0_189_186)">
<rect width="1231" height="807" rx="22.5" fill="#000214" fill-opacity="0.6"/>
<g filter="url(#filter0_d_189_186)">
<path d="M0 411L319.106 623.213L632 849.429H0V411Z" fill="url(#paint0_linear_189_186)"/>
</g>
<g filter="url(#filter1_d_189_186)">
<path d="M1251.71 399L930.729 612.457L616 840H1251.71V399Z" fill="url(#paint1_linear_189_186)"/>
</g>
<g filter="url(#filter2_d_189_186)">
<path d="M599.901 502.285C609.921 495.997 622.656 495.997 632.675 502.285L1159.58 833H73L599.901 502.285Z" fill="url(#paint2_linear_189_186)"/>
</g>
<path d="M175.494 98V62.2543H200.414V69.6588H183.92V90.5955H200.924V98H175.494ZM179.579 83.3443V76.2973H198.116V83.3443H179.579ZM219.851 98.4596C217.571 98.4596 215.528 97.8638 213.724 96.6723C211.953 95.4467 210.541 93.7786 209.485 91.6679C208.43 89.5232 207.902 87.1061 207.902 84.4167C207.902 81.6591 208.43 79.225 209.485 77.1143C210.541 75.0036 211.987 73.3525 213.826 72.161C215.664 70.9354 217.758 70.3226 220.107 70.3226C221.4 70.3226 222.575 70.5099 223.63 70.8844C224.72 71.2588 225.673 71.7865 226.49 72.4674C227.307 73.1142 228.005 73.8802 228.584 74.7653C229.162 75.6164 229.588 76.5356 229.86 77.5228L228.175 77.3186V70.8844H236.294V98H228.022V91.4637L229.86 91.4126C229.588 92.3658 229.145 93.268 228.533 94.119C227.92 94.9701 227.171 95.7191 226.286 96.3659C225.401 97.0127 224.413 97.5234 223.324 97.8979C222.235 98.2723 221.077 98.4596 219.851 98.4596ZM222.098 91.5658C223.358 91.5658 224.447 91.2764 225.367 90.6977C226.286 90.1189 227.001 89.3019 227.511 88.2465C228.022 87.1572 228.277 85.8805 228.277 84.4167C228.277 82.9528 228.022 81.6932 227.511 80.6378C227.001 79.5484 226.286 78.7144 225.367 78.1356C224.447 77.5228 223.358 77.2165 222.098 77.2165C220.873 77.2165 219.8 77.5228 218.881 78.1356C217.996 78.7144 217.298 79.5484 216.788 80.6378C216.277 81.6932 216.022 82.9528 216.022 84.4167C216.022 85.8805 216.277 87.1572 216.788 88.2465C217.298 89.3019 217.996 90.1189 218.881 90.6977C219.8 91.2764 220.873 91.5658 222.098 91.5658ZM246.057 98V70.8844H253.819L254.176 79.7187L252.645 78.0335C253.053 76.5696 253.717 75.259 254.636 74.1015C255.589 72.944 256.696 72.0248 257.955 71.344C259.215 70.6631 260.56 70.3226 261.989 70.3226C262.602 70.3226 263.164 70.3737 263.675 70.4758C264.219 70.578 264.713 70.6971 265.155 70.8333L262.909 79.8718C262.534 79.6335 262.023 79.4463 261.377 79.3101C260.764 79.1399 260.117 79.0548 259.436 79.0548C258.687 79.0548 257.989 79.191 257.343 79.4633C256.696 79.7016 256.151 80.0591 255.708 80.5357C255.266 81.0123 254.908 81.574 254.636 82.2208C254.398 82.8677 254.279 83.5996 254.279 84.4167V98H246.057ZM271.849 98V70.8844H279.611L279.866 76.3994L278.232 77.0122C278.607 75.7866 279.27 74.6802 280.224 73.693C281.211 72.6716 282.385 71.8546 283.747 71.2418C285.109 70.629 286.539 70.3226 288.037 70.3226C290.079 70.3226 291.798 70.7482 293.194 71.5993C294.59 72.4163 295.645 73.6589 296.36 75.327C297.075 76.9611 297.433 78.9697 297.433 81.3527V98H289.211V82.0166C289.211 80.9272 289.058 80.025 288.752 79.3101C288.445 78.5952 287.969 78.0675 287.322 77.7271C286.709 77.3526 285.943 77.1824 285.024 77.2165C284.309 77.2165 283.645 77.3356 283.032 77.5739C282.42 77.7782 281.892 78.1016 281.449 78.5442C281.007 78.9527 280.649 79.4293 280.377 79.974C280.139 80.5187 280.019 81.1144 280.019 81.7613V98H275.985C275.032 98 274.215 98 273.534 98C272.853 98 272.292 98 271.849 98ZM342.834 98.5107C340.144 98.5107 337.659 98.0681 335.378 97.183C333.131 96.2638 331.174 94.9872 329.506 93.3531C327.838 91.6849 326.544 89.7274 325.625 87.4806C324.74 85.1997 324.297 82.6975 324.297 79.974C324.297 77.3186 324.774 74.8675 325.727 72.6206C326.68 70.3737 327.991 68.4332 329.659 66.7992C331.361 65.131 333.353 63.8374 335.633 62.9182C337.948 61.999 340.468 61.5394 343.191 61.5394C344.893 61.5394 346.561 61.7607 348.196 62.2033C349.83 62.6458 351.345 63.3097 352.74 64.1948C354.17 65.0459 355.396 66.0672 356.417 67.2587L351.106 73.3355C350.391 72.5865 349.625 71.9397 348.808 71.395C348.025 70.8163 347.157 70.3737 346.204 70.0673C345.251 69.7609 344.229 69.6077 343.14 69.6077C341.778 69.6077 340.485 69.8631 339.259 70.3737C338.068 70.8503 337.012 71.5482 336.093 72.4674C335.208 73.3525 334.51 74.4419 333.999 75.7356C333.489 77.0292 333.233 78.4761 333.233 80.0761C333.233 81.6421 333.489 83.0719 333.999 84.3656C334.51 85.6252 335.225 86.7146 336.144 87.6338C337.063 88.5529 338.17 89.2508 339.463 89.7274C340.791 90.204 342.255 90.4423 343.855 90.4423C344.944 90.4423 345.983 90.2892 346.97 89.9828C347.957 89.6764 348.859 89.2678 349.676 88.7572C350.528 88.2125 351.276 87.5997 351.923 86.9188L356.111 93.5573C355.26 94.5105 354.119 95.3616 352.689 96.1106C351.293 96.8595 349.727 97.4553 347.991 97.8979C346.289 98.3064 344.57 98.5107 342.834 98.5107ZM360.06 98L374.205 62.2543H381.558L395.601 98H386.818L380.077 79.8718C379.805 79.1569 379.533 78.391 379.26 77.5739C378.988 76.7569 378.716 75.9228 378.443 75.0717C378.171 74.1866 377.899 73.3355 377.626 72.5185C377.388 71.6674 377.184 70.8844 377.013 70.1695L378.545 70.1184C378.341 70.9695 378.103 71.8035 377.831 72.6206C377.592 73.4376 377.337 74.2547 377.065 75.0717C376.826 75.8547 376.554 76.6547 376.247 77.4718C375.941 78.2548 375.652 79.0718 375.379 79.9229L368.639 98H360.06ZM366.8 91.1573L369.507 84.6209H385.95L388.605 91.1573H366.8ZM414.461 98.5107C411.125 98.5107 408.231 98 405.78 96.9787C403.363 95.9233 401.287 94.4084 399.55 92.4339L403.636 85.7954C405.542 87.7699 407.397 89.1657 409.202 89.9828C411.006 90.7998 412.895 91.2083 414.87 91.2083C415.789 91.2083 416.623 91.0892 417.372 90.8509C418.121 90.6126 418.7 90.2721 419.108 89.8296C419.517 89.353 419.721 88.7742 419.721 88.0933C419.721 87.5827 419.585 87.1231 419.313 86.7146C419.074 86.3061 418.734 85.9486 418.291 85.6422C417.849 85.3358 417.321 85.0635 416.708 84.8252C416.096 84.5528 415.449 84.3315 414.768 84.1613C414.087 83.9571 413.389 83.7868 412.674 83.6507C410.019 83.0719 407.823 82.2889 406.087 81.3017C404.385 80.3144 403.108 79.0888 402.257 77.625C401.406 76.1271 400.98 74.3738 400.98 72.3653C400.98 70.7652 401.338 69.3013 402.053 67.9737C402.802 66.6119 403.789 65.4544 405.014 64.5012C406.274 63.514 407.721 62.765 409.355 62.2543C410.989 61.7096 412.691 61.4373 414.461 61.4373C417.355 61.4373 419.942 61.8799 422.223 62.765C424.504 63.6501 426.547 65.0289 428.351 66.9013L424.674 72.927C423.313 71.5312 421.781 70.4929 420.079 69.812C418.376 69.1311 416.589 68.7907 414.717 68.7907C413.695 68.7907 412.81 68.9269 412.061 69.1992C411.346 69.4375 410.785 69.795 410.376 70.2716C409.968 70.7141 409.763 71.2588 409.763 71.9057C409.763 72.4844 409.934 72.978 410.274 73.3866C410.615 73.7951 411.074 74.1696 411.653 74.51C412.232 74.8164 412.895 75.0887 413.644 75.327C414.393 75.5313 415.176 75.7015 415.993 75.8377C417.866 76.2122 419.551 76.7058 421.049 77.3186C422.581 77.9314 423.891 78.6803 424.981 79.5655C426.104 80.4506 426.955 81.5059 427.534 82.7315C428.147 83.923 428.453 85.3188 428.453 86.9188C428.453 89.404 427.841 91.5147 426.615 93.2509C425.423 94.9531 423.772 96.2638 421.662 97.183C419.585 98.0681 417.185 98.5107 414.461 98.5107ZM411.398 102.647L411.959 78.9016L416.096 80.5868L416.657 102.647H411.398ZM417.372 80.6378L413.236 78.9527L412.674 57.7606H417.934L417.372 80.6378ZM443.813 95.4978V66.4928L445.703 70.8333L438.043 74.4589L436.562 66.697L446.724 61.7437H452.341V95.4978H443.813ZM437.277 98V90.3402H459.031V98H437.277ZM481.425 98.5107C478.225 98.5107 475.484 97.7787 473.204 96.3148C470.957 94.851 469.238 92.7573 468.046 90.0338C466.854 87.2763 466.259 83.9741 466.259 80.1272C466.259 76.2803 466.854 72.9951 468.046 70.2716C469.238 67.5141 470.957 65.4034 473.204 63.9395C475.484 62.4756 478.225 61.7437 481.425 61.7437C484.625 61.7437 487.366 62.4756 489.647 63.9395C491.927 65.4034 493.664 67.5141 494.855 70.2716C496.047 72.9951 496.643 76.2803 496.643 80.1272C496.643 83.9741 496.047 87.2763 494.855 90.0338C493.664 92.7573 491.927 94.851 489.647 96.3148C487.366 97.7787 484.625 98.5107 481.425 98.5107ZM481.425 91.1573C483.638 91.1573 485.34 90.204 486.532 88.2976C487.757 86.3912 488.37 83.6677 488.37 80.1272C488.37 76.4845 487.757 73.693 486.532 71.7525C485.34 69.778 483.638 68.7907 481.425 68.7907C479.212 68.7907 477.493 69.778 476.267 71.7525C475.076 73.693 474.48 76.4845 474.48 80.1272C474.48 83.6677 475.076 86.3912 476.267 88.2976C477.493 90.204 479.212 91.1573 481.425 91.1573ZM518.437 98.5107C515.237 98.5107 512.497 97.7787 510.216 96.3148C507.969 94.851 506.25 92.7573 505.058 90.0338C503.867 87.2763 503.271 83.9741 503.271 80.1272C503.271 76.2803 503.867 72.9951 505.058 70.2716C506.25 67.5141 507.969 65.4034 510.216 63.9395C512.497 62.4756 515.237 61.7437 518.437 61.7437C521.637 61.7437 524.378 62.4756 526.659 63.9395C528.94 65.4034 530.676 67.5141 531.868 70.2716C533.059 72.9951 533.655 76.2803 533.655 80.1272C533.655 83.9741 533.059 87.2763 531.868 90.0338C530.676 92.7573 528.94 94.851 526.659 96.3148C524.378 97.7787 521.637 98.5107 518.437 98.5107ZM518.437 91.1573C520.65 91.1573 522.352 90.204 523.544 88.2976C524.769 86.3912 525.382 83.6677 525.382 80.1272C525.382 76.4845 524.769 73.693 523.544 71.7525C522.352 69.778 520.65 68.7907 518.437 68.7907C516.225 68.7907 514.505 69.778 513.28 71.7525C512.088 73.693 511.493 76.4845 511.493 80.1272C511.493 83.6677 512.088 86.3912 513.28 88.2976C514.505 90.204 516.225 91.1573 518.437 91.1573ZM560.776 109.234V70.8844H568.538L568.845 76.9611L567.313 76.5015C567.551 75.3781 568.13 74.3568 569.049 73.4376C569.968 72.5185 571.126 71.7865 572.521 71.2418C573.951 70.6631 575.449 70.3737 577.015 70.3737C579.33 70.3737 581.39 70.9865 583.194 72.2121C584.998 73.4036 586.411 75.0547 587.432 77.1654C588.488 79.242 589.016 81.6591 589.016 84.4167C589.016 87.1401 588.488 89.5572 587.432 91.6679C586.411 93.7786 584.981 95.4467 583.143 96.6723C581.339 97.8638 579.262 98.4596 576.913 98.4596C575.381 98.4596 573.917 98.1702 572.521 97.5915C571.126 97.0127 569.951 96.2297 568.998 95.2425C568.045 94.2552 567.415 93.1828 567.109 92.0254L568.998 91.3105V109.234H560.776ZM574.922 91.5658C576.147 91.5658 577.219 91.2764 578.139 90.6977C579.058 90.0849 579.773 89.2508 580.283 88.1955C580.794 87.1401 581.049 85.8805 581.049 84.4167C581.049 82.9868 580.794 81.7442 580.283 80.6889C579.773 79.5995 579.058 78.7654 578.139 78.1867C577.253 77.5739 576.181 77.2675 574.922 77.2675C573.662 77.2675 572.573 77.5569 571.653 78.1356C570.734 78.7144 570.019 79.5484 569.509 80.6378C568.998 81.7272 568.743 82.9868 568.743 84.4167C568.743 85.8805 568.998 87.1401 569.509 88.1955C570.019 89.2508 570.734 90.0849 571.653 90.6977C572.573 91.2764 573.662 91.5658 574.922 91.5658ZM609.91 98.5107C606.915 98.5107 604.31 97.9149 602.097 96.7234C599.885 95.4978 598.165 93.8467 596.94 91.77C595.714 89.6593 595.101 87.2593 595.101 84.5698C595.101 82.4932 595.442 80.5868 596.123 78.8505C596.804 77.1143 597.757 75.6164 598.982 74.3568C600.208 73.0631 601.655 72.0759 603.323 71.395C605.025 70.6801 606.88 70.3226 608.889 70.3226C610.795 70.3226 612.532 70.6631 614.098 71.344C615.698 72.0248 617.077 72.978 618.234 74.2036C619.391 75.4292 620.277 76.876 620.889 78.5442C621.502 80.2123 621.775 82.0336 621.706 84.0081L621.655 86.2039H600.055L598.88 81.6081H615.017L614.149 82.5783V81.557C614.081 80.7059 613.808 79.957 613.332 79.3101C612.889 78.6293 612.293 78.1016 611.544 77.7271C610.795 77.3526 609.944 77.1654 608.991 77.1654C607.663 77.1654 606.523 77.4377 605.57 77.9824C604.651 78.4931 603.953 79.2591 603.476 80.2804C603 81.2676 602.761 82.4932 602.761 83.9571C602.761 85.455 603.068 86.7657 603.68 87.8891C604.327 88.9785 605.246 89.8296 606.438 90.4423C607.663 91.0551 609.11 91.3615 610.778 91.3615C611.936 91.3615 612.957 91.1913 613.842 90.8509C614.762 90.5104 615.749 89.9317 616.804 89.1147L620.634 94.5276C619.579 95.4467 618.455 96.1957 617.264 96.7744C616.072 97.3532 614.847 97.7787 613.587 98.0511C612.361 98.3575 611.136 98.5107 609.91 98.5107ZM629.465 98V70.8844H637.227L637.585 79.7187L636.053 78.0335C636.461 76.5696 637.125 75.259 638.044 74.1015C638.997 72.944 640.104 72.0248 641.363 71.344C642.623 70.6631 643.968 70.3226 645.397 70.3226C646.01 70.3226 646.572 70.3737 647.083 70.4758C647.627 70.578 648.121 70.6971 648.564 70.8333L646.317 79.8718C645.942 79.6335 645.432 79.4463 644.785 79.3101C644.172 79.1399 643.525 79.0548 642.844 79.0548C642.095 79.0548 641.397 79.191 640.751 79.4633C640.104 79.7016 639.559 80.0591 639.116 80.5357C638.674 81.0123 638.316 81.574 638.044 82.2208C637.806 82.8677 637.687 83.5996 637.687 84.4167V98H629.465ZM674.218 98V60.2117H682.389V98H674.218ZM701.74 98.4596C699.459 98.4596 697.416 97.8638 695.612 96.6723C693.841 95.4467 692.429 93.7786 691.373 91.6679C690.318 89.5232 689.79 87.1061 689.79 84.4167C689.79 81.6591 690.318 79.225 691.373 77.1143C692.429 75.0036 693.876 73.3525 695.714 72.161C697.552 70.9354 699.646 70.3226 701.995 70.3226C703.289 70.3226 704.463 70.5099 705.518 70.8844C706.608 71.2588 707.561 71.7865 708.378 72.4674C709.195 73.1142 709.893 73.8802 710.472 74.7653C711.05 75.6164 711.476 76.5356 711.748 77.5228L710.063 77.3186V70.8844H718.183V98H709.91V91.4637L711.748 91.4126C711.476 92.3658 711.033 93.268 710.421 94.119C709.808 94.9701 709.059 95.7191 708.174 96.3659C707.289 97.0127 706.301 97.5234 705.212 97.8979C704.123 98.2723 702.965 98.4596 701.74 98.4596ZM703.986 91.5658C705.246 91.5658 706.335 91.2764 707.255 90.6977C708.174 90.1189 708.889 89.3019 709.399 88.2465C709.91 87.1572 710.165 85.8805 710.165 84.4167C710.165 82.9528 709.91 81.6932 709.399 80.6378C708.889 79.5484 708.174 78.7144 707.255 78.1356C706.335 77.5228 705.246 77.2165 703.986 77.2165C702.761 77.2165 701.689 77.5228 700.769 78.1356C699.884 78.7144 699.186 79.5484 698.676 80.6378C698.165 81.6932 697.91 82.9528 697.91 84.4167C697.91 85.8805 698.165 87.1572 698.676 88.2465C699.186 89.3019 699.884 90.1189 700.769 90.6977C701.689 91.2764 702.761 91.5658 703.986 91.5658ZM727.945 98V70.8844H735.707L735.962 76.3994L734.328 77.0122C734.703 75.7866 735.367 74.6802 736.32 73.693C737.307 72.6716 738.482 71.8546 739.843 71.2418C741.205 70.629 742.635 70.3226 744.133 70.3226C746.175 70.3226 747.895 70.7482 749.29 71.5993C750.686 72.4163 751.742 73.6589 752.457 75.327C753.171 76.9611 753.529 78.9697 753.529 81.3527V98H745.307V82.0166C745.307 80.9272 745.154 80.025 744.848 79.3101C744.541 78.5952 744.065 78.0675 743.418 77.7271C742.805 77.3526 742.039 77.1824 741.12 77.2165C740.405 77.2165 739.741 77.3356 739.128 77.5739C738.516 77.7782 737.988 78.1016 737.545 78.5442C737.103 78.9527 736.745 79.4293 736.473 79.974C736.235 80.5187 736.116 81.1144 736.116 81.7613V98H732.081C731.128 98 730.311 98 729.63 98C728.949 98 728.388 98 727.945 98ZM773.177 98.5617C770.828 98.5617 768.734 97.966 766.896 96.7744C765.092 95.5489 763.662 93.8807 762.607 91.77C761.551 89.6253 761.024 87.1912 761.024 84.4677C761.024 81.7442 761.551 79.3272 762.607 77.2165C763.662 75.0717 765.109 73.3866 766.947 72.161C768.785 70.9354 770.896 70.3226 773.279 70.3226C774.505 70.3226 775.679 70.5099 776.803 70.8844C777.926 71.2588 778.947 71.7695 779.867 72.4163C780.786 73.0631 781.535 73.8121 782.113 74.6632C782.692 75.4802 783.033 76.3313 783.135 77.2165L781.194 77.676V60.2117H789.416V98H781.807L781.347 91.8211L782.982 92.0764C782.879 92.9275 782.539 93.7446 781.96 94.5276C781.416 95.3106 780.701 96.0085 779.816 96.6212C778.93 97.2 777.909 97.6596 776.752 98C775.628 98.3745 774.437 98.5617 773.177 98.5617ZM775.271 91.77C776.53 91.77 777.62 91.4637 778.539 90.8509C779.458 90.2381 780.156 89.387 780.633 88.2976C781.143 87.2082 781.399 85.9316 781.399 84.4677C781.399 82.9698 781.143 81.6762 780.633 80.5868C780.156 79.4974 779.458 78.6463 778.539 78.0335C777.62 77.4207 776.53 77.1143 775.271 77.1143C774.011 77.1143 772.922 77.4207 772.003 78.0335C771.117 78.6463 770.42 79.4974 769.909 80.5868C769.398 81.6762 769.143 82.9698 769.143 84.4677C769.143 85.9316 769.398 87.2082 769.909 88.2976C770.42 89.387 771.117 90.2381 772.003 90.8509C772.922 91.4637 774.011 91.77 775.271 91.77ZM811.644 98.5107C808.819 98.5107 806.299 97.8979 804.087 96.6723C801.908 95.4467 800.172 93.7786 798.878 91.6679C797.618 89.5572 796.989 87.1401 796.989 84.4167C796.989 81.6932 797.618 79.2761 798.878 77.1654C800.172 75.0547 801.908 73.3866 804.087 72.161C806.299 70.9354 808.819 70.3226 811.644 70.3226C814.47 70.3226 816.972 70.9354 819.151 72.161C821.364 73.3866 823.1 75.0547 824.36 77.1654C825.619 79.2761 826.249 81.6932 826.249 84.4167C826.249 87.1401 825.619 89.5572 824.36 91.6679C823.1 93.7786 821.364 95.4467 819.151 96.6723C816.972 97.8979 814.47 98.5107 811.644 98.5107ZM811.644 91.4637C812.87 91.4637 813.959 91.1573 814.912 90.5445C815.866 89.9317 816.615 89.0976 817.159 88.0423C817.704 86.9869 817.959 85.7784 817.925 84.4167C817.959 83.0549 817.704 81.8464 817.159 80.791C816.615 79.7016 815.866 78.8505 814.912 78.2378C813.959 77.625 812.87 77.3186 811.644 77.3186C810.419 77.3186 809.312 77.625 808.325 78.2378C807.372 78.8505 806.623 79.7016 806.078 80.791C805.534 81.8464 805.278 83.0549 805.312 84.4167C805.278 85.7784 805.534 86.9869 806.078 88.0423C806.623 89.0976 807.372 89.9317 808.325 90.5445C809.312 91.1573 810.419 91.4637 811.644 91.4637ZM839.071 98L830.135 70.8844H838.765L843.769 88.5019L842.697 88.2976L848.314 74.6121H853.114L859.038 88.3487L857.863 88.4508L862.868 70.8844H871.498L862.255 98H856.229L850.357 83.4464L850.969 83.5485L845.097 98H839.071ZM878.288 98V70.8844H886.05L886.306 76.3994L884.672 77.0122C885.046 75.7866 885.71 74.6802 886.663 73.693C887.65 72.6716 888.825 71.8546 890.187 71.2418C891.548 70.629 892.978 70.3226 894.476 70.3226C896.519 70.3226 898.238 70.7482 899.634 71.5993C901.029 72.4163 902.085 73.6589 902.8 75.327C903.515 76.9611 903.872 78.9697 903.872 81.3527V98H895.651V82.0166C895.651 80.9272 895.497 80.025 895.191 79.3101C894.885 78.5952 894.408 78.0675 893.761 77.7271C893.148 77.3526 892.382 77.1824 891.463 77.2165C890.748 77.2165 890.084 77.3356 889.472 77.5739C888.859 77.7782 888.331 78.1016 887.889 78.5442C887.446 78.9527 887.089 79.4293 886.816 79.974C886.578 80.5187 886.459 81.1144 886.459 81.7613V98H882.425C881.471 98 880.654 98 879.974 98C879.293 98 878.731 98 878.288 98ZM926.176 98.5107C923.18 98.5107 920.575 97.9149 918.363 96.7234C916.15 95.4978 914.431 93.8467 913.205 91.77C911.979 89.6593 911.367 87.2593 911.367 84.5698C911.367 82.4932 911.707 80.5868 912.388 78.8505C913.069 77.1143 914.022 75.6164 915.248 74.3568C916.473 73.0631 917.92 72.0759 919.588 71.395C921.29 70.6801 923.146 70.3226 925.154 70.3226C927.061 70.3226 928.797 70.6631 930.363 71.344C931.963 72.0248 933.342 72.978 934.499 74.2036C935.657 75.4292 936.542 76.876 937.155 78.5442C937.767 80.2123 938.04 82.0336 937.972 84.0081L937.921 86.2039H916.32L915.146 81.6081H931.282L930.414 82.5783V81.557C930.346 80.7059 930.074 79.957 929.597 79.3101C929.154 78.6293 928.559 78.1016 927.81 77.7271C927.061 77.3526 926.21 77.1654 925.256 77.1654C923.929 77.1654 922.788 77.4377 921.835 77.9824C920.916 78.4931 920.218 79.2591 919.741 80.2804C919.265 81.2676 919.026 82.4932 919.026 83.9571C919.026 85.455 919.333 86.7657 919.946 87.8891C920.592 88.9785 921.512 89.8296 922.703 90.4423C923.929 91.0551 925.376 91.3615 927.044 91.3615C928.201 91.3615 929.223 91.1913 930.108 90.8509C931.027 90.5104 932.014 89.9317 933.069 89.1147L936.899 94.5276C935.844 95.4467 934.721 96.1957 933.529 96.7744C932.337 97.3532 931.112 97.7787 929.852 98.0511C928.627 98.3575 927.401 98.5107 926.176 98.5107ZM945.73 98V70.8844H953.492L953.85 79.7187L952.318 78.0335C952.726 76.5696 953.39 75.259 954.309 74.1015C955.263 72.944 956.369 72.0248 957.629 71.344C958.888 70.6631 960.233 70.3226 961.663 70.3226C962.276 70.3226 962.837 70.3737 963.348 70.4758C963.893 70.578 964.386 70.6971 964.829 70.8333L962.582 79.8718C962.207 79.6335 961.697 79.4463 961.05 79.3101C960.437 79.1399 959.79 79.0548 959.11 79.0548C958.361 79.0548 957.663 79.191 957.016 79.4633C956.369 79.7016 955.824 80.0591 955.382 80.5357C954.939 81.0123 954.582 81.574 954.309 82.2208C954.071 82.8677 953.952 83.5996 953.952 84.4167V98H945.73ZM977.371 79.974L978.086 73.0291L978.954 73.1823L972.571 77.5228L969.813 72.8248L976.707 70.0673L976.656 70.5269L969.762 67.4119L972.52 62.6629L979.107 67.5141L978.086 67.5651L977.269 60.416H983.141L982.375 67.8205L981.558 67.463L987.737 62.7139L990.495 67.463L983.448 70.578V70.0673L990.393 72.8248L987.686 77.4718L981.609 72.978L982.426 73.0291L983.243 79.974H977.371ZM178.047 176.745L184.226 162.191L184.328 166.379L171.255 137.884H180.498L186.217 151.519C186.524 152.2 186.813 152.932 187.086 153.715C187.358 154.498 187.562 155.247 187.698 155.961L186.575 156.625C186.779 156.115 187 155.485 187.239 154.736C187.511 153.953 187.8 153.119 188.107 152.234L193.111 137.884H202.405L190.864 165L186.166 176.745H178.047ZM221.113 165.511C218.287 165.511 215.768 164.898 213.555 163.672C211.376 162.447 209.64 160.779 208.347 158.668C207.087 156.557 206.457 154.14 206.457 151.417C206.457 148.693 207.087 146.276 208.347 144.165C209.64 142.055 211.376 140.387 213.555 139.161C215.768 137.935 218.287 137.323 221.113 137.323C223.939 137.323 226.441 137.935 228.62 139.161C230.832 140.387 232.569 142.055 233.828 144.165C235.088 146.276 235.718 148.693 235.718 151.417C235.718 154.14 235.088 156.557 233.828 158.668C232.569 160.779 230.832 162.447 228.62 163.672C226.441 164.898 223.939 165.511 221.113 165.511ZM221.113 158.464C222.338 158.464 223.428 158.157 224.381 157.544C225.334 156.932 226.083 156.098 226.628 155.042C227.173 153.987 227.428 152.778 227.394 151.417C227.428 150.055 227.173 148.846 226.628 147.791C226.083 146.702 225.334 145.851 224.381 145.238C223.428 144.625 222.338 144.319 221.113 144.319C219.887 144.319 218.781 144.625 217.794 145.238C216.84 145.851 216.092 146.702 215.547 147.791C215.002 148.846 214.747 150.055 214.781 151.417C214.747 152.778 215.002 153.987 215.547 155.042C216.092 156.098 216.84 156.932 217.794 157.544C218.781 158.157 219.887 158.464 221.113 158.464ZM252.856 165.562C250.848 165.562 249.129 165.136 247.699 164.285C246.303 163.4 245.214 162.14 244.431 160.506C243.682 158.872 243.307 156.915 243.307 154.634V137.884H251.529V153.51C251.529 154.6 251.699 155.536 252.039 156.319C252.38 157.102 252.89 157.715 253.571 158.157C254.252 158.566 255.069 158.77 256.022 158.77C256.737 158.77 257.384 158.651 257.963 158.413C258.576 158.174 259.086 157.851 259.495 157.442C259.937 157 260.278 156.506 260.516 155.961C260.754 155.383 260.874 154.753 260.874 154.072V137.884H269.095V165H261.384L261.027 159.434L262.559 158.821C262.15 160.115 261.469 161.272 260.516 162.294C259.563 163.281 258.422 164.081 257.095 164.694C255.767 165.272 254.354 165.562 252.856 165.562ZM297.84 165V137.884H305.602L305.96 146.719L304.428 145.033C304.836 143.57 305.5 142.259 306.419 141.101C307.373 139.944 308.479 139.025 309.739 138.344C310.998 137.663 312.343 137.323 313.773 137.323C314.386 137.323 314.947 137.374 315.458 137.476C316.003 137.578 316.496 137.697 316.939 137.833L314.692 146.872C314.317 146.634 313.807 146.446 313.16 146.31C312.547 146.14 311.9 146.055 311.22 146.055C310.471 146.055 309.773 146.191 309.126 146.463C308.479 146.702 307.934 147.059 307.492 147.536C307.049 148.012 306.692 148.574 306.419 149.221C306.181 149.868 306.062 150.6 306.062 151.417V165H297.84ZM335.405 165.511C332.409 165.511 329.805 164.915 327.592 163.723C325.379 162.498 323.66 160.847 322.434 158.77C321.209 156.659 320.596 154.259 320.596 151.57C320.596 149.493 320.936 147.587 321.617 145.851C322.298 144.114 323.251 142.616 324.477 141.357C325.702 140.063 327.149 139.076 328.817 138.395C330.52 137.68 332.375 137.323 334.384 137.323C336.29 137.323 338.026 137.663 339.592 138.344C341.192 139.025 342.571 139.978 343.729 141.204C344.886 142.429 345.771 143.876 346.384 145.544C346.997 147.212 347.269 149.034 347.201 151.008L347.15 153.204H325.549L324.375 148.608H340.511L339.643 149.578V148.557C339.575 147.706 339.303 146.957 338.826 146.31C338.384 145.629 337.788 145.102 337.039 144.727C336.29 144.353 335.439 144.165 334.486 144.165C333.158 144.165 332.018 144.438 331.064 144.982C330.145 145.493 329.447 146.259 328.971 147.28C328.494 148.268 328.256 149.493 328.256 150.957C328.256 152.455 328.562 153.766 329.175 154.889C329.822 155.978 330.741 156.83 331.932 157.442C333.158 158.055 334.605 158.362 336.273 158.362C337.43 158.362 338.452 158.191 339.337 157.851C340.256 157.51 341.243 156.932 342.299 156.115L346.129 161.528C345.073 162.447 343.95 163.196 342.758 163.774C341.567 164.353 340.341 164.779 339.082 165.051C337.856 165.357 336.63 165.511 335.405 165.511ZM356.645 165V136.557C356.645 134.786 357.019 133.186 357.768 131.757C358.551 130.327 359.624 129.203 360.985 128.386C362.381 127.535 363.998 127.11 365.837 127.11C367.13 127.11 368.322 127.297 369.411 127.671C370.501 128.046 371.471 128.573 372.322 129.254L369.973 135.229C369.53 134.991 369.105 134.803 368.696 134.667C368.288 134.531 367.913 134.463 367.573 134.463C366.96 134.463 366.449 134.565 366.041 134.769C365.632 134.974 365.326 135.297 365.122 135.74C364.951 136.148 364.866 136.659 364.866 137.272V165H360.781C359.862 165 359.045 165 358.33 165C357.649 165 357.087 165 356.645 165ZM352.713 145.391V138.65H370.432V145.391H352.713ZM389.482 165.511C386.486 165.511 383.882 164.915 381.669 163.723C379.456 162.498 377.737 160.847 376.512 158.77C375.286 156.659 374.673 154.259 374.673 151.57C374.673 149.493 375.014 147.587 375.695 145.851C376.375 144.114 377.329 142.616 378.554 141.357C379.78 140.063 381.227 139.076 382.895 138.395C384.597 137.68 386.452 137.323 388.461 137.323C390.367 137.323 392.103 137.663 393.669 138.344C395.27 139.025 396.648 139.978 397.806 141.204C398.963 142.429 399.848 143.876 400.461 145.544C401.074 147.212 401.346 149.034 401.278 151.008L401.227 153.204H379.627L378.452 148.608H394.589L393.721 149.578V148.557C393.652 147.706 393.38 146.957 392.904 146.31C392.461 145.629 391.865 145.102 391.116 144.727C390.367 144.353 389.516 144.165 388.563 144.165C387.235 144.165 386.095 144.438 385.142 144.982C384.222 145.493 383.525 146.259 383.048 147.28C382.571 148.268 382.333 149.493 382.333 150.957C382.333 152.455 382.639 153.766 383.252 154.889C383.899 155.978 384.818 156.83 386.01 157.442C387.235 158.055 388.682 158.362 390.35 158.362C391.508 158.362 392.529 158.191 393.414 157.851C394.333 157.51 395.321 156.932 396.376 156.115L400.206 161.528C399.15 162.447 398.027 163.196 396.836 163.774C395.644 164.353 394.418 164.779 393.159 165.051C391.933 165.357 390.708 165.511 389.482 165.511ZM409.037 165V137.884H416.799L417.156 146.719L415.624 145.033C416.033 143.57 416.697 142.259 417.616 141.101C418.569 139.944 419.676 139.025 420.935 138.344C422.195 137.663 423.539 137.323 424.969 137.323C425.582 137.323 426.144 137.374 426.654 137.476C427.199 137.578 427.693 137.697 428.135 137.833L425.888 146.872C425.514 146.634 425.003 146.446 424.356 146.31C423.744 146.14 423.097 146.055 422.416 146.055C421.667 146.055 420.969 146.191 420.322 146.463C419.676 146.702 419.131 147.059 418.688 147.536C418.246 148.012 417.888 148.574 417.616 149.221C417.378 149.868 417.258 150.6 417.258 151.417V165H409.037ZM455.986 165V131.042H464.156V165H455.986ZM451.186 145.033V137.884H469.416V145.033H451.186ZM489.155 165.511C486.33 165.511 483.811 164.898 481.598 163.672C479.419 162.447 477.683 160.779 476.389 158.668C475.13 156.557 474.5 154.14 474.5 151.417C474.5 148.693 475.13 146.276 476.389 144.165C477.683 142.055 479.419 140.387 481.598 139.161C483.811 137.935 486.33 137.323 489.155 137.323C491.981 137.323 494.483 137.935 496.662 139.161C498.875 140.387 500.611 142.055 501.871 144.165C503.13 146.276 503.76 148.693 503.76 151.417C503.76 154.14 503.13 156.557 501.871 158.668C500.611 160.779 498.875 162.447 496.662 163.672C494.483 164.898 491.981 165.511 489.155 165.511ZM489.155 158.464C490.381 158.464 491.47 158.157 492.424 157.544C493.377 156.932 494.126 156.098 494.671 155.042C495.215 153.987 495.471 152.778 495.437 151.417C495.471 150.055 495.215 148.846 494.671 147.791C494.126 146.702 493.377 145.851 492.424 145.238C491.47 144.625 490.381 144.319 489.155 144.319C487.93 144.319 486.824 144.625 485.836 145.238C484.883 145.851 484.134 146.702 483.589 147.791C483.045 148.846 482.789 150.055 482.823 151.417C482.789 152.778 483.045 153.987 483.589 155.042C484.134 156.098 484.883 156.932 485.836 157.544C486.824 158.157 487.93 158.464 489.155 158.464ZM530.566 165V127.212H538.583V143.399L536.949 144.012C537.324 142.787 537.988 141.68 538.941 140.693C539.928 139.672 541.103 138.855 542.464 138.242C543.826 137.629 545.256 137.323 546.754 137.323C548.796 137.323 550.516 137.748 551.911 138.599C553.307 139.416 554.363 140.659 555.077 142.327C555.792 143.961 556.15 145.97 556.15 148.353V165H547.928V149.017C547.928 147.927 547.775 147.025 547.469 146.31C547.162 145.595 546.686 145.068 546.039 144.727C545.426 144.353 544.66 144.182 543.741 144.216C543.026 144.216 542.362 144.336 541.749 144.574C541.137 144.778 540.609 145.102 540.166 145.544C539.724 145.953 539.366 146.429 539.094 146.974C538.856 147.519 538.737 148.114 538.737 148.761V165H534.702C533.749 165 532.932 165 532.251 165C531.57 165 531.009 165 530.566 165ZM574.777 165.562C572.768 165.562 571.049 165.136 569.619 164.285C568.223 163.4 567.134 162.14 566.351 160.506C565.602 158.872 565.228 156.915 565.228 154.634V137.884H573.449V153.51C573.449 154.6 573.619 155.536 573.96 156.319C574.3 157.102 574.811 157.715 575.492 158.157C576.172 158.566 576.99 158.77 577.943 158.77C578.658 158.77 579.304 158.651 579.883 158.413C580.496 158.174 581.007 157.851 581.415 157.442C581.858 157 582.198 156.506 582.436 155.961C582.675 155.383 582.794 154.753 582.794 154.072V137.884H591.015V165H583.305L582.947 159.434L584.479 158.821C584.071 160.115 583.39 161.272 582.436 162.294C581.483 163.281 580.343 164.081 579.015 164.694C577.687 165.272 576.275 165.562 574.777 165.562ZM600.851 165V137.884H608.613L608.868 143.399L607.234 144.012C607.608 142.787 608.272 141.68 609.225 140.693C610.213 139.672 611.387 138.855 612.749 138.242C614.111 137.629 615.54 137.323 617.038 137.323C619.081 137.323 620.8 137.748 622.196 138.599C623.592 139.416 624.647 140.659 625.362 142.327C626.077 143.961 626.434 145.97 626.434 148.353V165H618.213V149.017C618.213 147.927 618.06 147.025 617.753 146.31C617.447 145.595 616.97 145.068 616.323 144.727C615.711 144.353 614.945 144.182 614.025 144.216C613.311 144.216 612.647 144.336 612.034 144.574C611.421 144.778 610.893 145.102 610.451 145.544C610.008 145.953 609.651 146.429 609.379 146.974C609.14 147.519 609.021 148.114 609.021 148.761V165H604.987C604.034 165 603.217 165 602.536 165C601.855 165 601.293 165 600.851 165ZM638.065 165V131.042H646.236V165H638.065ZM633.265 145.033V137.884H651.495V145.033H633.265ZM670.877 176.745C668.665 176.745 666.452 176.422 664.239 175.775C662.06 175.128 660.29 174.294 658.928 173.273L661.788 167.553C662.503 168.03 663.286 168.438 664.137 168.779C665.022 169.153 665.941 169.443 666.894 169.647C667.848 169.851 668.818 169.953 669.805 169.953C671.541 169.953 672.954 169.698 674.043 169.187C675.133 168.677 675.95 167.894 676.495 166.838C677.039 165.817 677.312 164.523 677.312 162.957V158.413L678.895 158.668C678.656 159.791 678.061 160.813 677.107 161.732C676.188 162.651 675.048 163.4 673.686 163.979C672.324 164.523 670.877 164.796 669.345 164.796C666.894 164.796 664.699 164.234 662.758 163.111C660.852 161.953 659.337 160.37 658.213 158.362C657.124 156.319 656.579 153.97 656.579 151.315C656.579 148.591 657.124 146.191 658.213 144.114C659.303 142.004 660.801 140.353 662.707 139.161C664.613 137.935 666.758 137.323 669.141 137.323C670.163 137.323 671.133 137.442 672.052 137.68C673.005 137.918 673.873 138.242 674.656 138.65C675.473 139.025 676.188 139.484 676.801 140.029C677.448 140.54 677.958 141.101 678.333 141.714C678.741 142.327 679.014 142.957 679.15 143.604L677.465 144.012L677.771 137.884H685.533V162.804C685.533 165.017 685.193 166.975 684.512 168.677C683.865 170.413 682.895 171.877 681.601 173.068C680.342 174.294 678.81 175.213 677.005 175.826C675.201 176.439 673.158 176.745 670.877 176.745ZM671.082 158.464C672.409 158.464 673.55 158.174 674.503 157.596C675.49 156.983 676.239 156.149 676.75 155.093C677.295 154.038 677.567 152.795 677.567 151.366C677.567 149.936 677.295 148.693 676.75 147.638C676.239 146.548 675.49 145.714 674.503 145.136C673.55 144.523 672.409 144.216 671.082 144.216C669.788 144.216 668.665 144.523 667.711 145.136C666.758 145.714 666.009 146.548 665.465 147.638C664.954 148.693 664.699 149.936 664.699 151.366C664.699 152.795 664.954 154.038 665.465 155.093C666.009 156.149 666.758 156.983 667.711 157.596C668.665 158.174 669.788 158.464 671.082 158.464ZM695.182 165V137.884H702.944L703.301 146.719L701.769 145.033C702.178 143.57 702.842 142.259 703.761 141.101C704.714 139.944 705.82 139.025 707.08 138.344C708.34 137.663 709.684 137.323 711.114 137.323C711.727 137.323 712.289 137.374 712.799 137.476C713.344 137.578 713.838 137.697 714.28 137.833L712.033 146.872C711.659 146.634 711.148 146.446 710.501 146.31C709.889 146.14 709.242 146.055 708.561 146.055C707.812 146.055 707.114 146.191 706.467 146.463C705.82 146.702 705.276 147.059 704.833 147.536C704.39 148.012 704.033 148.574 703.761 149.221C703.522 149.868 703.403 150.6 703.403 151.417V165H695.182ZM732.593 165.511C729.767 165.511 727.248 164.898 725.035 163.672C722.856 162.447 721.12 160.779 719.827 158.668C718.567 156.557 717.937 154.14 717.937 151.417C717.937 148.693 718.567 146.276 719.827 144.165C721.12 142.055 722.856 140.387 725.035 139.161C727.248 137.935 729.767 137.323 732.593 137.323C735.419 137.323 737.921 137.935 740.1 139.161C742.312 140.387 744.049 142.055 745.308 144.165C746.568 146.276 747.198 148.693 747.198 151.417C747.198 154.14 746.568 156.557 745.308 158.668C744.049 160.779 742.312 162.447 740.1 163.672C737.921 164.898 735.419 165.511 732.593 165.511ZM732.593 158.464C733.818 158.464 734.908 158.157 735.861 157.544C736.814 156.932 737.563 156.098 738.108 155.042C738.653 153.987 738.908 152.778 738.874 151.417C738.908 150.055 738.653 148.846 738.108 147.791C737.563 146.702 736.814 145.851 735.861 145.238C734.908 144.625 733.818 144.319 732.593 144.319C731.367 144.319 730.261 144.625 729.274 145.238C728.32 145.851 727.572 146.702 727.027 147.791C726.482 148.846 726.227 150.055 726.261 151.417C726.227 152.778 726.482 153.987 727.027 155.042C727.572 156.098 728.32 156.932 729.274 157.544C730.261 158.157 731.367 158.464 732.593 158.464ZM764.336 165.562C762.328 165.562 760.609 165.136 759.179 164.285C757.783 163.4 756.694 162.14 755.911 160.506C755.162 158.872 754.787 156.915 754.787 154.634V137.884H763.009V153.51C763.009 154.6 763.179 155.536 763.519 156.319C763.86 157.102 764.37 157.715 765.051 158.157C765.732 158.566 766.549 158.77 767.502 158.77C768.217 158.77 768.864 158.651 769.443 158.413C770.056 158.174 770.566 157.851 770.975 157.442C771.417 157 771.758 156.506 771.996 155.961C772.234 155.383 772.354 154.753 772.354 154.072V137.884H780.575V165H772.864L772.507 159.434L774.039 158.821C773.63 160.115 772.949 161.272 771.996 162.294C771.043 163.281 769.903 164.081 768.575 164.694C767.247 165.272 765.834 165.562 764.336 165.562ZM790.41 165V137.884H798.172L798.428 143.399L796.794 144.012C797.168 142.787 797.832 141.68 798.785 140.693C799.772 139.672 800.947 138.855 802.309 138.242C803.67 137.629 805.1 137.323 806.598 137.323C808.641 137.323 810.36 137.748 811.756 138.599C813.151 139.416 814.207 140.659 814.922 142.327C815.637 143.961 815.994 145.97 815.994 148.353V165H807.773V149.017C807.773 147.927 807.619 147.025 807.313 146.31C807.007 145.595 806.53 145.068 805.883 144.727C805.27 144.353 804.504 144.182 803.585 144.216C802.87 144.216 802.206 144.336 801.594 144.574C800.981 144.778 800.453 145.102 800.011 145.544C799.568 145.953 799.211 146.429 798.938 146.974C798.7 147.519 798.581 148.114 798.581 148.761V165H794.547C793.593 165 792.776 165 792.096 165C791.415 165 790.853 165 790.41 165ZM835.642 165.562C833.293 165.562 831.2 164.966 829.361 163.774C827.557 162.549 826.127 160.881 825.072 158.77C824.016 156.625 823.489 154.191 823.489 151.468C823.489 148.744 824.016 146.327 825.072 144.216C826.127 142.072 827.574 140.387 829.412 139.161C831.251 137.935 833.361 137.323 835.744 137.323C836.97 137.323 838.144 137.51 839.268 137.884C840.391 138.259 841.413 138.769 842.332 139.416C843.251 140.063 844 140.812 844.579 141.663C845.157 142.48 845.498 143.331 845.6 144.216L843.659 144.676V127.212H851.881V165H844.272L843.813 158.821L845.447 159.076C845.345 159.928 845.004 160.745 844.425 161.528C843.881 162.311 843.166 163.008 842.281 163.621C841.396 164.2 840.374 164.66 839.217 165C838.093 165.374 836.902 165.562 835.642 165.562ZM837.736 158.77C838.995 158.77 840.085 158.464 841.004 157.851C841.923 157.238 842.621 156.387 843.098 155.298C843.608 154.208 843.864 152.932 843.864 151.468C843.864 149.97 843.608 148.676 843.098 147.587C842.621 146.497 841.923 145.646 841.004 145.033C840.085 144.421 838.995 144.114 837.736 144.114C836.476 144.114 835.387 144.421 834.468 145.033C833.583 145.646 832.885 146.497 832.374 147.587C831.863 148.676 831.608 149.97 831.608 151.468C831.608 152.932 831.863 154.208 832.374 155.298C832.885 156.387 833.583 157.238 834.468 157.851C835.387 158.464 836.476 158.77 837.736 158.77ZM870.484 165.511C867.828 165.511 865.479 165.085 863.437 164.234C861.428 163.383 859.828 162.242 858.637 160.813L863.59 156.523C864.645 157.579 865.837 158.362 867.165 158.872C868.492 159.349 869.752 159.587 870.943 159.587C871.42 159.587 871.846 159.536 872.22 159.434C872.595 159.332 872.901 159.196 873.139 159.025C873.412 158.821 873.616 158.6 873.752 158.362C873.888 158.089 873.956 157.783 873.956 157.442C873.956 156.761 873.65 156.234 873.037 155.859C872.731 155.689 872.22 155.485 871.505 155.247C870.79 155.008 869.871 154.736 868.748 154.429C867.148 154.021 865.752 153.544 864.56 153C863.403 152.421 862.45 151.757 861.701 151.008C861.02 150.293 860.492 149.51 860.118 148.659C859.743 147.774 859.556 146.787 859.556 145.697C859.556 144.438 859.845 143.297 860.424 142.276C861.037 141.255 861.837 140.37 862.824 139.621C863.845 138.872 865.003 138.31 866.296 137.935C867.624 137.527 868.986 137.323 870.382 137.323C871.88 137.323 873.309 137.493 874.671 137.833C876.033 138.174 877.293 138.65 878.45 139.263C879.642 139.876 880.697 140.608 881.616 141.459L877.327 146.259C876.714 145.68 876.016 145.17 875.233 144.727C874.484 144.25 873.701 143.876 872.884 143.604C872.067 143.331 871.318 143.195 870.637 143.195C870.126 143.195 869.667 143.246 869.258 143.348C868.884 143.416 868.56 143.553 868.288 143.757C868.016 143.927 867.811 144.148 867.675 144.421C867.539 144.659 867.471 144.948 867.471 145.289C867.471 145.629 867.556 145.953 867.726 146.259C867.931 146.565 868.203 146.821 868.543 147.025C868.884 147.229 869.428 147.468 870.177 147.74C870.926 147.978 871.948 148.285 873.241 148.659C874.841 149.102 876.22 149.595 877.378 150.14C878.535 150.685 879.454 151.332 880.135 152.08C880.68 152.659 881.088 153.34 881.361 154.123C881.633 154.872 881.769 155.689 881.769 156.574C881.769 158.31 881.276 159.859 880.288 161.221C879.335 162.549 878.007 163.604 876.305 164.387C874.603 165.136 872.663 165.511 870.484 165.511ZM890.865 151.978C890.592 149.902 890.32 147.757 890.048 145.544C889.775 143.331 889.554 141.136 889.384 138.957C889.214 136.778 889.129 134.684 889.129 132.676V128.693H897.759V132.676C897.759 134.718 897.673 136.846 897.503 139.059C897.333 141.272 897.112 143.485 896.839 145.697C896.567 147.876 896.278 149.97 895.971 151.978H890.865ZM893.418 165.562C892.022 165.562 890.933 165.17 890.15 164.387C889.367 163.604 888.975 162.481 888.975 161.017C888.975 159.655 889.384 158.549 890.201 157.698C891.018 156.847 892.09 156.421 893.418 156.421C894.814 156.421 895.886 156.83 896.635 157.647C897.418 158.43 897.81 159.553 897.81 161.017C897.81 162.345 897.401 163.434 896.584 164.285C895.767 165.136 894.712 165.562 893.418 165.562Z" fill="white"/>
<path d="M540.579 773.88H537.79C537.711 773.423 537.564 773.018 537.35 772.665C537.136 772.307 536.87 772.004 536.552 771.755C536.234 771.506 535.871 771.32 535.463 771.196C535.061 771.066 534.626 771.002 534.158 771.002C533.328 771.002 532.592 771.211 531.951 771.628C531.31 772.041 530.808 772.647 530.445 773.448C530.082 774.243 529.9 775.215 529.9 776.364C529.9 777.532 530.082 778.516 530.445 779.317C530.813 780.112 531.315 780.714 531.951 781.121C532.592 781.524 533.326 781.725 534.151 781.725C534.608 781.725 535.036 781.666 535.434 781.547C535.836 781.422 536.197 781.241 536.515 781.002C536.838 780.763 537.109 780.47 537.328 780.122C537.551 779.774 537.706 779.376 537.79 778.929L540.579 778.944C540.475 779.67 540.249 780.351 539.901 780.987C539.558 781.624 539.108 782.185 538.551 782.673C537.994 783.155 537.343 783.533 536.597 783.806C535.851 784.075 535.023 784.209 534.114 784.209C532.771 784.209 531.573 783.898 530.519 783.277C529.465 782.655 528.635 781.758 528.028 780.585C527.422 779.411 527.119 778.004 527.119 776.364C527.119 774.718 527.424 773.311 528.036 772.143C528.647 770.969 529.48 770.072 530.534 769.451C531.588 768.829 532.781 768.518 534.114 768.518C534.964 768.518 535.754 768.638 536.485 768.876C537.216 769.115 537.867 769.466 538.439 769.928C539.011 770.385 539.48 770.947 539.848 771.613C540.221 772.275 540.465 773.03 540.579 773.88ZM547.99 784.224C546.871 784.224 545.902 783.978 545.082 783.485C544.261 782.993 543.625 782.305 543.172 781.42C542.725 780.535 542.501 779.501 542.501 778.317C542.501 777.134 542.725 776.098 543.172 775.208C543.625 774.318 544.261 773.627 545.082 773.135C545.902 772.642 546.871 772.396 547.99 772.396C549.109 772.396 550.078 772.642 550.898 773.135C551.719 773.627 552.353 774.318 552.8 775.208C553.252 776.098 553.479 777.134 553.479 778.317C553.479 779.501 553.252 780.535 552.8 781.42C552.353 782.305 551.719 782.993 550.898 783.485C550.078 783.978 549.109 784.224 547.99 784.224ZM548.005 782.061C548.611 782.061 549.119 781.895 549.526 781.561C549.934 781.223 550.237 780.771 550.436 780.204C550.64 779.637 550.742 779.006 550.742 778.31C550.742 777.609 550.64 776.975 550.436 776.408C550.237 775.837 549.934 775.382 549.526 775.044C549.119 774.706 548.611 774.537 548.005 774.537C547.383 774.537 546.866 774.706 546.454 775.044C546.046 775.382 545.74 775.837 545.536 776.408C545.338 776.975 545.238 777.609 545.238 778.31C545.238 779.006 545.338 779.637 545.536 780.204C545.74 780.771 546.046 781.223 546.454 781.561C546.866 781.895 547.383 782.061 548.005 782.061ZM558.469 777.288V784H555.77V772.545H558.35V774.492H558.484C558.748 773.85 559.168 773.341 559.745 772.963C560.326 772.585 561.045 772.396 561.9 772.396C562.69 772.396 563.379 772.565 563.966 772.903C564.557 773.241 565.015 773.731 565.338 774.373C565.666 775.014 565.827 775.792 565.822 776.707V784H563.123V777.124C563.123 776.359 562.924 775.76 562.526 775.327C562.134 774.895 561.589 774.678 560.893 774.678C560.421 774.678 560.001 774.783 559.633 774.991C559.27 775.195 558.984 775.491 558.775 775.879C558.571 776.267 558.469 776.737 558.469 777.288ZM572.817 784.201C571.918 784.201 571.112 783.97 570.401 783.508C569.69 783.045 569.129 782.374 568.716 781.494C568.303 780.614 568.097 779.545 568.097 778.288C568.097 777.015 568.306 775.941 568.723 775.066C569.146 774.186 569.715 773.522 570.431 773.075C571.147 772.623 571.945 772.396 572.825 772.396C573.496 772.396 574.048 772.511 574.48 772.739C574.913 772.963 575.256 773.234 575.51 773.552C575.763 773.865 575.96 774.161 576.099 774.44H576.211V768.727H578.918V784H576.263V782.195H576.099C575.96 782.474 575.758 782.77 575.495 783.083C575.231 783.391 574.883 783.654 574.451 783.873C574.018 784.092 573.474 784.201 572.817 784.201ZM573.571 781.987C574.142 781.987 574.63 781.832 575.032 781.524C575.435 781.211 575.741 780.776 575.95 780.219C576.158 779.662 576.263 779.013 576.263 778.273C576.263 777.532 576.158 776.888 575.95 776.341C575.746 775.794 575.442 775.369 575.04 775.066C574.642 774.763 574.152 774.611 573.571 774.611C572.969 774.611 572.467 774.768 572.064 775.081C571.662 775.394 571.358 775.827 571.154 776.379C570.951 776.93 570.849 777.562 570.849 778.273C570.849 778.989 570.951 779.627 571.154 780.189C571.363 780.746 571.669 781.186 572.072 781.509C572.479 781.827 572.979 781.987 573.571 781.987ZM581.794 784V772.545H584.494V784H581.794ZM583.152 770.92C582.724 770.92 582.356 770.778 582.048 770.495C581.74 770.206 581.585 769.861 581.585 769.458C581.585 769.05 581.74 768.705 582.048 768.422C582.356 768.133 582.724 767.989 583.152 767.989C583.584 767.989 583.952 768.133 584.255 768.422C584.563 768.705 584.718 769.05 584.718 769.458C584.718 769.861 584.563 770.206 584.255 770.495C583.952 770.778 583.584 770.92 583.152 770.92ZM592.99 772.545V774.634H586.405V772.545H592.99ZM588.031 769.801H590.73V780.555C590.73 780.918 590.785 781.196 590.894 781.39C591.009 781.579 591.158 781.708 591.342 781.778C591.526 781.847 591.729 781.882 591.953 781.882C592.122 781.882 592.276 781.87 592.415 781.845C592.56 781.82 592.669 781.798 592.744 781.778L593.199 783.888C593.054 783.938 592.848 783.993 592.58 784.052C592.316 784.112 591.993 784.147 591.61 784.157C590.934 784.176 590.325 784.075 589.783 783.851C589.241 783.622 588.811 783.269 588.493 782.792C588.18 782.315 588.026 781.718 588.031 781.002V769.801ZM595.247 784V772.545H597.947V784H595.247ZM596.605 770.92C596.177 770.92 595.809 770.778 595.501 770.495C595.193 770.206 595.039 769.861 595.039 769.458C595.039 769.05 595.193 768.705 595.501 768.422C595.809 768.133 596.177 767.989 596.605 767.989C597.037 767.989 597.405 768.133 597.708 768.422C598.017 768.705 598.171 769.05 598.171 769.458C598.171 769.861 598.017 770.206 597.708 770.495C597.405 770.778 597.037 770.92 596.605 770.92ZM605.719 784.224C604.601 784.224 603.631 783.978 602.811 783.485C601.991 782.993 601.354 782.305 600.902 781.42C600.455 780.535 600.231 779.501 600.231 778.317C600.231 777.134 600.455 776.098 600.902 775.208C601.354 774.318 601.991 773.627 602.811 773.135C603.631 772.642 604.601 772.396 605.719 772.396C606.838 772.396 607.808 772.642 608.628 773.135C609.448 773.627 610.082 774.318 610.529 775.208C610.982 776.098 611.208 777.134 611.208 778.317C611.208 779.501 610.982 780.535 610.529 781.42C610.082 782.305 609.448 782.993 608.628 783.485C607.808 783.978 606.838 784.224 605.719 784.224ZM605.734 782.061C606.341 782.061 606.848 781.895 607.256 781.561C607.663 781.223 607.967 780.771 608.165 780.204C608.369 779.637 608.471 779.006 608.471 778.31C608.471 777.609 608.369 776.975 608.165 776.408C607.967 775.837 607.663 775.382 607.256 775.044C606.848 774.706 606.341 774.537 605.734 774.537C605.113 774.537 604.596 774.706 604.183 775.044C603.776 775.382 603.47 775.837 603.266 776.408C603.067 776.975 602.968 777.609 602.968 778.31C602.968 779.006 603.067 779.637 603.266 780.204C603.47 780.771 603.776 781.223 604.183 781.561C604.596 781.895 605.113 782.061 605.734 782.061ZM616.199 777.288V784H613.499V772.545H616.08V774.492H616.214C616.477 773.85 616.897 773.341 617.474 772.963C618.056 772.585 618.774 772.396 619.629 772.396C620.42 772.396 621.108 772.565 621.695 772.903C622.287 773.241 622.744 773.731 623.067 774.373C623.395 775.014 623.557 775.792 623.552 776.707V784H620.852V777.124C620.852 776.359 620.653 775.76 620.256 775.327C619.863 774.895 619.319 774.678 618.623 774.678C618.15 774.678 617.73 774.783 617.362 774.991C616.999 775.195 616.714 775.491 616.505 775.879C616.301 776.267 616.199 776.737 616.199 777.288ZM635.35 775.573L632.889 775.842C632.819 775.593 632.697 775.359 632.523 775.141C632.354 774.922 632.125 774.745 631.837 774.611C631.549 774.477 631.196 774.41 630.778 774.41C630.216 774.41 629.744 774.532 629.361 774.775C628.983 775.019 628.797 775.335 628.802 775.722C628.797 776.055 628.919 776.326 629.167 776.535C629.421 776.744 629.839 776.915 630.42 777.05L632.374 777.467C633.458 777.701 634.263 778.071 634.79 778.578C635.322 779.086 635.591 779.749 635.596 780.57C635.591 781.29 635.379 781.927 634.962 782.479C634.549 783.026 633.975 783.453 633.239 783.761C632.503 784.07 631.658 784.224 630.704 784.224C629.302 784.224 628.173 783.93 627.318 783.344C626.463 782.752 625.953 781.929 625.789 780.875L628.422 780.622C628.541 781.139 628.794 781.529 629.182 781.793C629.57 782.056 630.075 782.188 630.696 782.188C631.337 782.188 631.852 782.056 632.24 781.793C632.633 781.529 632.829 781.203 632.829 780.816C632.829 780.488 632.702 780.217 632.449 780.003C632.2 779.789 631.812 779.625 631.285 779.511L629.331 779.1C628.233 778.872 627.42 778.487 626.893 777.945C626.366 777.398 626.105 776.707 626.11 775.871C626.105 775.165 626.296 774.554 626.684 774.037C627.077 773.515 627.621 773.112 628.317 772.829C629.018 772.54 629.826 772.396 630.741 772.396C632.083 772.396 633.14 772.682 633.91 773.254C634.686 773.826 635.166 774.599 635.35 775.573ZM646.327 784.231C645.601 784.231 644.947 784.102 644.366 783.843C643.789 783.58 643.331 783.192 642.993 782.68C642.66 782.168 642.494 781.537 642.494 780.786C642.494 780.14 642.613 779.605 642.852 779.183C643.09 778.76 643.416 778.422 643.829 778.168C644.241 777.915 644.706 777.723 645.223 777.594C645.745 777.46 646.285 777.363 646.841 777.303C647.513 777.234 648.057 777.172 648.475 777.117C648.892 777.057 649.195 776.968 649.384 776.848C649.578 776.724 649.675 776.533 649.675 776.274V776.229C649.675 775.668 649.509 775.233 649.176 774.924C648.842 774.616 648.363 774.462 647.736 774.462C647.075 774.462 646.551 774.606 646.163 774.895C645.78 775.183 645.521 775.523 645.387 775.916L642.867 775.558C643.065 774.862 643.394 774.281 643.851 773.813C644.308 773.341 644.868 772.988 645.529 772.754C646.19 772.516 646.921 772.396 647.721 772.396C648.273 772.396 648.823 772.461 649.369 772.59C649.916 772.719 650.416 772.933 650.868 773.232C651.321 773.525 651.684 773.925 651.957 774.432C652.236 774.939 652.375 775.573 652.375 776.334V784H649.78V782.426H649.69C649.526 782.745 649.295 783.043 648.997 783.321C648.703 783.595 648.333 783.816 647.885 783.985C647.443 784.149 646.923 784.231 646.327 784.231ZM647.028 782.248C647.57 782.248 648.04 782.141 648.437 781.927C648.835 781.708 649.141 781.42 649.354 781.062C649.573 780.704 649.683 780.314 649.683 779.891V778.541C649.598 778.611 649.454 778.675 649.25 778.735C649.051 778.795 648.828 778.847 648.579 778.892C648.33 778.936 648.084 778.976 647.841 779.011C647.597 779.046 647.386 779.076 647.207 779.1C646.804 779.155 646.444 779.245 646.125 779.369C645.807 779.493 645.556 779.667 645.372 779.891C645.188 780.11 645.096 780.393 645.096 780.741C645.096 781.238 645.278 781.614 645.641 781.867C646.004 782.121 646.466 782.248 647.028 782.248ZM655.089 788.295V772.545H657.744V774.44H657.901C658.04 774.161 658.236 773.865 658.49 773.552C658.743 773.234 659.086 772.963 659.519 772.739C659.951 772.511 660.503 772.396 661.174 772.396C662.059 772.396 662.857 772.623 663.568 773.075C664.284 773.522 664.851 774.186 665.269 775.066C665.691 775.941 665.902 777.015 665.902 778.288C665.902 779.545 665.696 780.614 665.283 781.494C664.871 782.374 664.309 783.045 663.598 783.508C662.887 783.97 662.082 784.201 661.182 784.201C660.526 784.201 659.981 784.092 659.549 783.873C659.116 783.654 658.768 783.391 658.505 783.083C658.246 782.77 658.045 782.474 657.901 782.195H657.789V788.295H655.089ZM657.737 778.273C657.737 779.013 657.841 779.662 658.05 780.219C658.264 780.776 658.569 781.211 658.967 781.524C659.37 781.832 659.857 781.987 660.429 781.987C661.025 781.987 661.525 781.827 661.928 781.509C662.33 781.186 662.634 780.746 662.837 780.189C663.046 779.627 663.151 778.989 663.151 778.273C663.151 777.562 663.049 776.93 662.845 776.379C662.641 775.827 662.338 775.394 661.935 775.081C661.532 774.768 661.03 774.611 660.429 774.611C659.852 774.611 659.362 774.763 658.96 775.066C658.557 775.369 658.251 775.794 658.042 776.341C657.839 776.888 657.737 777.532 657.737 778.273ZM668.214 788.295V772.545H670.869V774.44H671.026C671.165 774.161 671.361 773.865 671.615 773.552C671.868 773.234 672.211 772.963 672.644 772.739C673.076 772.511 673.628 772.396 674.299 772.396C675.184 772.396 675.982 772.623 676.693 773.075C677.409 773.522 677.976 774.186 678.394 775.066C678.816 775.941 679.027 777.015 679.027 778.288C679.027 779.545 678.821 780.614 678.408 781.494C677.996 782.374 677.434 783.045 676.723 783.508C676.012 783.97 675.207 784.201 674.307 784.201C673.651 784.201 673.106 784.092 672.674 783.873C672.241 783.654 671.893 783.391 671.63 783.083C671.371 782.77 671.17 782.474 671.026 782.195H670.914V788.295H668.214ZM670.862 778.273C670.862 779.013 670.966 779.662 671.175 780.219C671.389 780.776 671.694 781.211 672.092 781.524C672.495 781.832 672.982 781.987 673.554 781.987C674.15 781.987 674.65 781.827 675.053 781.509C675.455 781.186 675.759 780.746 675.962 780.189C676.171 779.627 676.276 778.989 676.276 778.273C676.276 777.562 676.174 776.93 675.97 776.379C675.766 775.827 675.463 775.394 675.06 775.081C674.657 774.768 674.155 774.611 673.554 774.611C672.977 774.611 672.487 774.763 672.085 775.066C671.682 775.369 671.376 775.794 671.167 776.341C670.964 776.888 670.862 777.532 670.862 778.273ZM684.039 768.727V784H681.339V768.727H684.039ZM688.493 788.295C688.125 788.295 687.784 788.266 687.471 788.206C687.163 788.151 686.917 788.087 686.733 788.012L687.359 785.909C687.752 786.023 688.102 786.078 688.411 786.073C688.719 786.068 688.99 785.971 689.224 785.782C689.462 785.598 689.664 785.29 689.828 784.858L690.059 784.239L685.905 772.545H688.769L691.409 781.196H691.528L694.175 772.545H697.046L692.46 785.387C692.246 785.994 691.963 786.513 691.61 786.946C691.257 787.383 690.824 787.716 690.312 787.945C689.805 788.179 689.199 788.295 688.493 788.295ZM699.86 784.164C699.407 784.164 699.019 784.005 698.696 783.687C698.373 783.369 698.214 782.981 698.219 782.523C698.214 782.076 698.373 781.693 698.696 781.375C699.019 781.057 699.407 780.898 699.86 780.898C700.297 780.898 700.677 781.057 701.001 781.375C701.329 781.693 701.495 782.076 701.5 782.523C701.495 782.827 701.416 783.103 701.262 783.351C701.112 783.6 700.914 783.799 700.665 783.948C700.421 784.092 700.153 784.164 699.86 784.164Z" fill="#D3DAFF"/>
<path fill-rule="evenodd" clip-rule="evenodd" d="M608.904 219.698C610.141 218.276 611.965 217.375 614 217.375C616.035 217.375 617.859 218.276 619.095 219.698C620.975 219.567 622.903 220.219 624.342 221.658C625.781 223.097 626.434 225.025 626.302 226.905C627.724 228.141 628.625 229.965 628.625 232C628.625 234.035 627.723 235.86 626.302 237.096C626.433 238.975 625.78 240.903 624.341 242.341C622.902 243.78 620.975 244.433 619.096 244.302C617.859 245.724 616.035 246.625 614 246.625C611.965 246.625 610.141 245.724 608.905 244.302C607.025 244.433 605.097 243.781 603.658 242.342C602.219 240.903 601.566 238.975 601.698 237.095C600.276 235.859 599.375 234.035 599.375 232C599.375 229.965 600.276 228.141 601.698 226.905C601.567 225.025 602.219 223.098 603.658 221.659C605.097 220.22 607.025 219.567 608.904 219.698ZM619.415 229.279C619.777 228.773 619.659 228.071 619.154 227.71C618.648 227.348 617.946 227.466 617.585 227.971L612.731 234.765L610.295 232.33C609.856 231.89 609.144 231.89 608.705 232.33C608.265 232.769 608.265 233.481 608.705 233.92L612.08 237.295C612.313 237.529 612.638 237.648 612.968 237.621C613.297 237.594 613.598 237.423 613.79 237.154L619.415 229.279Z" fill="#7D7D7D"/>
<path fill-rule="evenodd" clip-rule="evenodd" d="M848.904 219.698C850.141 218.276 851.965 217.375 854 217.375C856.035 217.375 857.859 218.276 859.095 219.698C860.975 219.567 862.903 220.219 864.342 221.658C865.781 223.097 866.434 225.025 866.302 226.905C867.724 228.141 868.625 229.965 868.625 232C868.625 234.035 867.723 235.86 866.302 237.096C866.433 238.975 865.78 240.903 864.341 242.341C862.902 243.78 860.975 244.433 859.096 244.302C857.859 245.724 856.035 246.625 854 246.625C851.965 246.625 850.141 245.724 848.905 244.302C847.025 244.433 845.097 243.781 843.658 242.342C842.219 240.903 841.566 238.975 841.698 237.095C840.276 235.859 839.375 234.035 839.375 232C839.375 229.965 840.276 228.141 841.698 226.905C841.567 225.025 842.219 223.098 843.658 221.659C845.097 220.22 847.025 219.567 848.904 219.698ZM859.415 229.279C859.777 228.773 859.659 228.071 859.154 227.71C858.648 227.348 857.946 227.466 857.585 227.971L852.731 234.765L850.295 232.33C849.856 231.89 849.144 231.89 848.705 232.33C848.265 232.769 848.265 233.481 848.705 233.92L852.08 237.295C852.313 237.529 852.638 237.648 852.968 237.621C853.297 237.594 853.598 237.423 853.79 237.154L859.415 229.279Z" fill="#7D7D7D"/>
<line x1="398.031" y1="231" x2="590.031" y2="233.011" stroke="white" stroke-width="6"/>
<line x1="638.031" y1="231" x2="830.031" y2="233.011" stroke="white" stroke-width="6"/>
<path d="M302.806 269.926C302.737 269.275 302.444 268.767 301.926 268.404C301.414 268.042 300.748 267.86 299.928 267.86C299.351 267.86 298.857 267.947 298.444 268.121C298.031 268.295 297.716 268.531 297.497 268.83C297.278 269.128 297.166 269.468 297.161 269.851C297.161 270.169 297.233 270.445 297.377 270.679C297.527 270.913 297.728 271.112 297.982 271.276C298.235 271.435 298.516 271.569 298.824 271.678C299.132 271.788 299.443 271.88 299.756 271.954L301.188 272.312C301.765 272.446 302.319 272.628 302.851 272.857C303.388 273.085 303.868 273.374 304.29 273.722C304.718 274.07 305.056 274.49 305.305 274.982C305.553 275.474 305.678 276.051 305.678 276.712C305.678 277.607 305.449 278.395 304.991 279.076C304.534 279.752 303.873 280.282 303.008 280.664C302.148 281.042 301.106 281.231 299.883 281.231C298.695 281.231 297.663 281.047 296.788 280.679C295.918 280.311 295.237 279.775 294.745 279.069C294.258 278.363 293.994 277.502 293.955 276.488H296.676C296.716 277.02 296.88 277.463 297.169 277.816C297.457 278.169 297.832 278.432 298.295 278.606C298.762 278.78 299.284 278.867 299.861 278.867C300.462 278.867 300.989 278.778 301.442 278.599C301.899 278.415 302.257 278.161 302.516 277.838C302.774 277.51 302.906 277.127 302.911 276.69C302.906 276.292 302.789 275.964 302.56 275.705C302.332 275.442 302.011 275.223 301.598 275.049C301.191 274.87 300.713 274.711 300.167 274.572L298.429 274.124C297.171 273.801 296.177 273.311 295.446 272.655C294.72 271.994 294.357 271.116 294.357 270.023C294.357 269.123 294.601 268.335 295.088 267.659C295.58 266.983 296.249 266.458 297.094 266.085C297.939 265.707 298.896 265.518 299.965 265.518C301.049 265.518 301.999 265.707 302.814 266.085C303.634 266.458 304.278 266.978 304.745 267.644C305.213 268.305 305.454 269.066 305.469 269.926H302.806ZM313.096 281.224C311.947 281.224 310.956 280.985 310.12 280.508C309.29 280.026 308.651 279.344 308.204 278.464C307.756 277.58 307.533 276.538 307.533 275.34C307.533 274.162 307.756 273.127 308.204 272.238C308.656 271.343 309.288 270.647 310.098 270.15C310.908 269.647 311.86 269.396 312.954 269.396C313.66 269.396 314.326 269.511 314.953 269.739C315.584 269.963 316.141 270.311 316.623 270.783C317.11 271.256 317.493 271.857 317.772 272.588C318.05 273.314 318.189 274.179 318.189 275.183V276.011H308.8V274.191H315.601C315.597 273.674 315.485 273.214 315.266 272.812C315.047 272.404 314.741 272.083 314.349 271.85C313.961 271.616 313.508 271.499 312.991 271.499C312.44 271.499 311.955 271.634 311.537 271.902C311.12 272.165 310.794 272.513 310.56 272.946C310.332 273.374 310.215 273.843 310.21 274.355V275.944C310.21 276.61 310.332 277.182 310.575 277.659C310.819 278.131 311.159 278.494 311.597 278.748C312.034 278.996 312.546 279.121 313.133 279.121C313.526 279.121 313.881 279.066 314.199 278.957C314.518 278.842 314.794 278.676 315.027 278.457C315.261 278.238 315.437 277.967 315.557 277.644L318.077 277.928C317.918 278.594 317.615 279.175 317.168 279.673C316.725 280.165 316.158 280.548 315.467 280.821C314.776 281.089 313.986 281.224 313.096 281.224ZM323.173 274.288V281H320.473V269.545H323.053V271.492H323.188C323.451 270.85 323.871 270.341 324.448 269.963C325.029 269.585 325.748 269.396 326.603 269.396C327.393 269.396 328.082 269.565 328.669 269.903C329.26 270.241 329.718 270.731 330.041 271.373C330.369 272.014 330.531 272.792 330.526 273.707V281H327.826V274.124C327.826 273.359 327.627 272.76 327.229 272.327C326.837 271.895 326.292 271.678 325.596 271.678C325.124 271.678 324.704 271.783 324.336 271.991C323.973 272.195 323.687 272.491 323.478 272.879C323.275 273.267 323.173 273.737 323.173 274.288ZM337.521 281.201C336.621 281.201 335.815 280.97 335.104 280.508C334.393 280.045 333.832 279.374 333.419 278.494C333.006 277.614 332.8 276.545 332.8 275.288C332.8 274.015 333.009 272.941 333.426 272.066C333.849 271.186 334.418 270.522 335.134 270.075C335.85 269.623 336.648 269.396 337.528 269.396C338.199 269.396 338.751 269.511 339.184 269.739C339.616 269.963 339.959 270.234 340.213 270.552C340.466 270.865 340.663 271.161 340.802 271.44H340.914V265.727H343.621V281H340.966V279.195H340.802C340.663 279.474 340.461 279.77 340.198 280.083C339.934 280.391 339.586 280.654 339.154 280.873C338.721 281.092 338.177 281.201 337.521 281.201ZM338.274 278.987C338.846 278.987 339.333 278.832 339.735 278.524C340.138 278.211 340.444 277.776 340.653 277.219C340.862 276.662 340.966 276.013 340.966 275.273C340.966 274.532 340.862 273.888 340.653 273.341C340.449 272.794 340.146 272.369 339.743 272.066C339.345 271.763 338.855 271.611 338.274 271.611C337.672 271.611 337.17 271.768 336.767 272.081C336.365 272.394 336.061 272.827 335.858 273.379C335.654 273.93 335.552 274.562 335.552 275.273C335.552 275.989 335.654 276.627 335.858 277.189C336.066 277.746 336.372 278.186 336.775 278.509C337.183 278.827 337.682 278.987 338.274 278.987ZM353.384 285.295C353.016 285.295 352.676 285.266 352.363 285.206C352.054 285.151 351.808 285.087 351.624 285.012L352.251 282.909C352.644 283.023 352.994 283.078 353.302 283.073C353.611 283.068 353.881 282.971 354.115 282.782C354.354 282.598 354.555 282.29 354.719 281.858L354.95 281.239L350.797 269.545H353.66L356.3 278.196H356.419L359.067 269.545H361.938L357.352 282.387C357.138 282.994 356.854 283.513 356.502 283.946C356.149 284.383 355.716 284.716 355.204 284.945C354.697 285.179 354.09 285.295 353.384 285.295ZM368.413 281.224C367.294 281.224 366.325 280.978 365.504 280.485C364.684 279.993 364.048 279.305 363.595 278.42C363.148 277.535 362.924 276.501 362.924 275.317C362.924 274.134 363.148 273.098 363.595 272.208C364.048 271.318 364.684 270.627 365.504 270.135C366.325 269.642 367.294 269.396 368.413 269.396C369.531 269.396 370.501 269.642 371.321 270.135C372.142 270.627 372.775 271.318 373.223 272.208C373.675 273.098 373.901 274.134 373.901 275.317C373.901 276.501 373.675 277.535 373.223 278.42C372.775 279.305 372.142 279.993 371.321 280.485C370.501 280.978 369.531 281.224 368.413 281.224ZM368.428 279.061C369.034 279.061 369.541 278.895 369.949 278.561C370.357 278.223 370.66 277.771 370.859 277.204C371.063 276.637 371.165 276.006 371.165 275.31C371.165 274.609 371.063 273.975 370.859 273.408C370.66 272.837 370.357 272.382 369.949 272.044C369.541 271.706 369.034 271.537 368.428 271.537C367.806 271.537 367.289 271.706 366.877 272.044C366.469 272.382 366.163 272.837 365.959 273.408C365.76 273.975 365.661 274.609 365.661 275.31C365.661 276.006 365.76 276.637 365.959 277.204C366.163 277.771 366.469 278.223 366.877 278.561C367.289 278.895 367.806 279.061 368.428 279.061ZM383.494 276.183V269.545H386.193V281H383.576V278.964H383.456C383.198 279.605 382.773 280.13 382.181 280.538C381.594 280.945 380.871 281.149 380.011 281.149C379.26 281.149 378.597 280.983 378.02 280.65C377.448 280.311 377.001 279.822 376.677 279.18C376.354 278.534 376.193 277.754 376.193 276.839V269.545H378.892V276.421C378.892 277.147 379.091 277.724 379.489 278.151C379.887 278.579 380.409 278.793 381.055 278.793C381.453 278.793 381.838 278.696 382.211 278.502C382.584 278.308 382.889 278.02 383.128 277.637C383.372 277.249 383.494 276.764 383.494 276.183ZM388.969 281V269.545H391.587V271.455H391.706C391.915 270.793 392.273 270.284 392.78 269.926C393.292 269.563 393.876 269.381 394.532 269.381C394.681 269.381 394.848 269.389 395.032 269.404C395.221 269.414 395.377 269.431 395.502 269.456V271.939C395.387 271.9 395.206 271.865 394.957 271.835C394.714 271.8 394.478 271.783 394.249 271.783C393.757 271.783 393.314 271.89 392.922 272.103C392.534 272.312 392.228 272.603 392.004 272.976C391.781 273.349 391.669 273.779 391.669 274.266V281H388.969ZM405.204 265.727V281H402.504V265.727H405.204ZM407.98 281V269.545H410.679V281H407.98ZM409.337 267.92C408.91 267.92 408.542 267.778 408.233 267.495C407.925 267.206 407.771 266.861 407.771 266.458C407.771 266.05 407.925 265.705 408.233 265.422C408.542 265.133 408.91 264.989 409.337 264.989C409.77 264.989 410.138 265.133 410.441 265.422C410.749 265.705 410.903 266.05 410.903 266.458C410.903 266.861 410.749 267.206 410.441 267.495C410.138 267.778 409.77 267.92 409.337 267.92ZM416.155 274.288V281H413.455V269.545H416.036V271.492H416.17C416.433 270.85 416.854 270.341 417.43 269.963C418.012 269.585 418.73 269.396 419.585 269.396C420.376 269.396 421.064 269.565 421.651 269.903C422.243 270.241 422.7 270.731 423.023 271.373C423.351 272.014 423.513 272.792 423.508 273.707V281H420.808V274.124C420.808 273.359 420.61 272.76 420.212 272.327C419.819 271.895 419.275 271.678 418.579 271.678C418.106 271.678 417.686 271.783 417.318 271.991C416.955 272.195 416.67 272.491 416.461 272.879C416.257 273.267 416.155 273.737 416.155 274.288ZM428.713 277.406L428.706 274.147H429.138L433.255 269.545H436.409L431.346 275.183H430.786L428.713 277.406ZM426.252 281V265.727H428.952V281H426.252ZM433.441 281L429.713 275.787L431.532 273.886L436.67 281H433.441Z" fill="#D3DAFF"/>
<path d="M563.835 274.047V271.727H576.021V274.047H571.3V287H568.556V274.047H563.835ZM580.95 280.288V287H578.25V271.727H580.89V277.492H581.025C581.293 276.846 581.708 276.336 582.27 275.963C582.837 275.585 583.558 275.396 584.433 275.396C585.228 275.396 585.922 275.563 586.513 275.896C587.105 276.229 587.562 276.716 587.885 277.358C588.213 277.999 588.377 278.782 588.377 279.707V287H585.678V280.124C585.678 279.354 585.479 278.755 585.081 278.327C584.689 277.895 584.137 277.678 583.426 277.678C582.949 277.678 582.521 277.783 582.143 277.991C581.77 278.195 581.477 278.491 581.263 278.879C581.054 279.267 580.95 279.737 580.95 280.288ZM596.2 287.224C595.052 287.224 594.06 286.985 593.225 286.508C592.395 286.026 591.756 285.344 591.308 284.464C590.861 283.58 590.637 282.538 590.637 281.34C590.637 280.162 590.861 279.127 591.308 278.238C591.761 277.343 592.392 276.647 593.202 276.15C594.013 275.647 594.965 275.396 596.059 275.396C596.765 275.396 597.431 275.511 598.057 275.739C598.689 275.963 599.245 276.311 599.728 276.783C600.215 277.256 600.598 277.857 600.876 278.588C601.154 279.314 601.294 280.179 601.294 281.183V282.011H591.905V280.191H598.706C598.701 279.674 598.589 279.214 598.37 278.812C598.152 278.404 597.846 278.083 597.453 277.85C597.065 277.616 596.613 277.499 596.096 277.499C595.544 277.499 595.059 277.634 594.642 277.902C594.224 278.165 593.898 278.513 593.665 278.946C593.436 279.374 593.319 279.843 593.314 280.355V281.944C593.314 282.61 593.436 283.182 593.68 283.659C593.923 284.131 594.264 284.494 594.701 284.748C595.139 284.996 595.651 285.121 596.238 285.121C596.63 285.121 596.986 285.066 597.304 284.957C597.622 284.842 597.898 284.676 598.132 284.457C598.365 284.238 598.542 283.967 598.661 283.644L601.182 283.928C601.023 284.594 600.719 285.175 600.272 285.673C599.83 286.165 599.263 286.548 598.572 286.821C597.881 287.089 597.09 287.224 596.2 287.224ZM604.927 291.295C604.559 291.295 604.219 291.266 603.906 291.206C603.597 291.151 603.351 291.087 603.167 291.012L603.794 288.909C604.187 289.023 604.537 289.078 604.845 289.073C605.153 289.068 605.424 288.971 605.658 288.782C605.897 288.598 606.098 288.29 606.262 287.858L606.493 287.239L602.34 275.545H605.203L607.843 284.196H607.962L610.61 275.545H613.481L608.895 288.387C608.681 288.994 608.397 289.513 608.044 289.946C607.691 290.383 607.259 290.716 606.747 290.945C606.24 291.179 605.633 291.295 604.927 291.295ZM620.677 287V271.727H623.377V277.44H623.489C623.628 277.161 623.824 276.865 624.078 276.552C624.331 276.234 624.674 275.963 625.107 275.739C625.54 275.511 626.091 275.396 626.763 275.396C627.647 275.396 628.445 275.623 629.156 276.075C629.872 276.522 630.439 277.186 630.857 278.066C631.279 278.941 631.491 280.015 631.491 281.288C631.491 282.545 631.284 283.614 630.872 284.494C630.459 285.374 629.897 286.045 629.186 286.508C628.475 286.97 627.67 287.201 626.77 287.201C626.114 287.201 625.569 287.092 625.137 286.873C624.704 286.654 624.356 286.391 624.093 286.083C623.834 285.77 623.633 285.474 623.489 285.195H623.332V287H620.677ZM623.325 281.273C623.325 282.013 623.429 282.662 623.638 283.219C623.852 283.776 624.157 284.211 624.555 284.524C624.958 284.832 625.445 284.987 626.017 284.987C626.613 284.987 627.113 284.827 627.516 284.509C627.918 284.186 628.222 283.746 628.426 283.189C628.634 282.627 628.739 281.989 628.739 281.273C628.739 280.562 628.637 279.93 628.433 279.379C628.229 278.827 627.926 278.394 627.523 278.081C627.12 277.768 626.618 277.611 626.017 277.611C625.44 277.611 624.95 277.763 624.548 278.066C624.145 278.369 623.839 278.794 623.63 279.341C623.427 279.888 623.325 280.532 623.325 281.273ZM638.782 287.224C637.663 287.224 636.694 286.978 635.874 286.485C635.053 285.993 634.417 285.305 633.964 284.42C633.517 283.535 633.293 282.501 633.293 281.317C633.293 280.134 633.517 279.098 633.964 278.208C634.417 277.318 635.053 276.627 635.874 276.135C636.694 275.642 637.663 275.396 638.782 275.396C639.901 275.396 640.87 275.642 641.69 276.135C642.511 276.627 643.145 277.318 643.592 278.208C644.044 279.098 644.271 280.134 644.271 281.317C644.271 282.501 644.044 283.535 643.592 284.42C643.145 285.305 642.511 285.993 641.69 286.485C640.87 286.978 639.901 287.224 638.782 287.224ZM638.797 285.061C639.403 285.061 639.911 284.895 640.318 284.561C640.726 284.223 641.029 283.771 641.228 283.204C641.432 282.637 641.534 282.006 641.534 281.31C641.534 280.609 641.432 279.975 641.228 279.408C641.029 278.837 640.726 278.382 640.318 278.044C639.911 277.706 639.403 277.537 638.797 277.537C638.175 277.537 637.658 277.706 637.246 278.044C636.838 278.382 636.532 278.837 636.328 279.408C636.13 279.975 636.03 280.609 636.03 281.31C636.03 282.006 636.13 282.637 636.328 283.204C636.532 283.771 636.838 284.223 637.246 284.561C637.658 284.895 638.175 285.061 638.797 285.061ZM651.558 287.224C650.44 287.224 649.47 286.978 648.65 286.485C647.83 285.993 647.193 285.305 646.741 284.42C646.293 283.535 646.07 282.501 646.07 281.317C646.07 280.134 646.293 279.098 646.741 278.208C647.193 277.318 647.83 276.627 648.65 276.135C649.47 275.642 650.44 275.396 651.558 275.396C652.677 275.396 653.646 275.642 654.467 276.135C655.287 276.627 655.921 277.318 656.368 278.208C656.821 279.098 657.047 280.134 657.047 281.317C657.047 282.501 656.821 283.535 656.368 284.42C655.921 285.305 655.287 285.993 654.467 286.485C653.646 286.978 652.677 287.224 651.558 287.224ZM651.573 285.061C652.18 285.061 652.687 284.895 653.095 284.561C653.502 284.223 653.805 283.771 654.004 283.204C654.208 282.637 654.31 282.006 654.31 281.31C654.31 280.609 654.208 279.975 654.004 279.408C653.805 278.837 653.502 278.382 653.095 278.044C652.687 277.706 652.18 277.537 651.573 277.537C650.952 277.537 650.435 277.706 650.022 278.044C649.614 278.382 649.309 278.837 649.105 279.408C648.906 279.975 648.807 280.609 648.807 281.31C648.807 282.006 648.906 282.637 649.105 283.204C649.309 283.771 649.614 284.223 650.022 284.561C650.435 284.895 650.952 285.061 651.573 285.061ZM661.799 283.406L661.792 280.147H662.224L666.341 275.545H669.495L664.432 281.183H663.872L661.799 283.406ZM659.338 287V271.727H662.038V287H659.338ZM666.527 287L662.798 281.787L664.618 279.886L669.756 287H666.527Z" fill="#D3DAFF"/>
<path d="M795.806 276.926C795.737 276.275 795.444 275.767 794.926 275.404C794.414 275.042 793.748 274.86 792.928 274.86C792.351 274.86 791.857 274.947 791.444 275.121C791.031 275.295 790.716 275.531 790.497 275.83C790.278 276.128 790.166 276.468 790.161 276.851C790.161 277.169 790.233 277.445 790.377 277.679C790.527 277.913 790.728 278.112 790.982 278.276C791.235 278.435 791.516 278.569 791.824 278.678C792.132 278.788 792.443 278.88 792.756 278.954L794.188 279.312C794.765 279.446 795.319 279.628 795.851 279.857C796.388 280.085 796.868 280.374 797.29 280.722C797.718 281.07 798.056 281.49 798.305 281.982C798.553 282.474 798.678 283.051 798.678 283.712C798.678 284.607 798.449 285.395 797.991 286.076C797.534 286.752 796.873 287.282 796.008 287.664C795.148 288.042 794.106 288.231 792.883 288.231C791.695 288.231 790.663 288.047 789.788 287.679C788.918 287.311 788.237 286.775 787.745 286.069C787.258 285.363 786.994 284.502 786.955 283.488H789.676C789.716 284.02 789.88 284.463 790.169 284.816C790.457 285.169 790.832 285.432 791.295 285.606C791.762 285.78 792.284 285.867 792.861 285.867C793.462 285.867 793.989 285.778 794.442 285.599C794.899 285.415 795.257 285.161 795.516 284.838C795.774 284.51 795.906 284.127 795.911 283.69C795.906 283.292 795.789 282.964 795.56 282.705C795.332 282.442 795.011 282.223 794.598 282.049C794.191 281.87 793.713 281.711 793.167 281.572L791.429 281.124C790.171 280.801 789.177 280.311 788.446 279.655C787.72 278.994 787.357 278.116 787.357 277.023C787.357 276.123 787.601 275.335 788.088 274.659C788.58 273.983 789.249 273.458 790.094 273.085C790.939 272.707 791.896 272.518 792.965 272.518C794.049 272.518 794.999 272.707 795.814 273.085C796.634 273.458 797.278 273.978 797.745 274.644C798.213 275.305 798.454 276.066 798.469 276.926H795.806ZM806.745 276.545V278.634H800.16V276.545H806.745ZM801.785 273.801H804.485V284.555C804.485 284.918 804.54 285.196 804.649 285.39C804.763 285.579 804.913 285.708 805.097 285.778C805.28 285.847 805.484 285.882 805.708 285.882C805.877 285.882 806.031 285.87 806.17 285.845C806.315 285.82 806.424 285.798 806.498 285.778L806.953 287.888C806.809 287.938 806.603 287.993 806.334 288.052C806.071 288.112 805.748 288.147 805.365 288.157C804.689 288.176 804.08 288.075 803.538 287.851C802.996 287.622 802.566 287.269 802.248 286.792C801.935 286.315 801.78 285.718 801.785 285.002V273.801ZM812.298 288.231C811.573 288.231 810.919 288.102 810.337 287.843C809.76 287.58 809.303 287.192 808.965 286.68C808.632 286.168 808.465 285.537 808.465 284.786C808.465 284.14 808.585 283.605 808.823 283.183C809.062 282.76 809.388 282.422 809.8 282.168C810.213 281.915 810.678 281.723 811.195 281.594C811.717 281.46 812.256 281.363 812.813 281.303C813.484 281.234 814.029 281.172 814.446 281.117C814.864 281.057 815.167 280.968 815.356 280.848C815.55 280.724 815.647 280.533 815.647 280.274V280.229C815.647 279.668 815.48 279.233 815.147 278.924C814.814 278.616 814.334 278.462 813.708 278.462C813.047 278.462 812.522 278.606 812.134 278.895C811.752 279.183 811.493 279.523 811.359 279.916L808.838 279.558C809.037 278.862 809.365 278.281 809.823 277.813C810.28 277.341 810.839 276.988 811.501 276.754C812.162 276.516 812.893 276.396 813.693 276.396C814.245 276.396 814.794 276.461 815.341 276.59C815.888 276.719 816.388 276.933 816.84 277.232C817.292 277.525 817.655 277.925 817.929 278.432C818.207 278.939 818.346 279.573 818.346 280.334V288H815.751V286.426H815.662C815.498 286.745 815.267 287.043 814.968 287.321C814.675 287.595 814.305 287.816 813.857 287.985C813.415 288.149 812.895 288.231 812.298 288.231ZM812.999 286.248C813.541 286.248 814.011 286.141 814.409 285.927C814.807 285.708 815.112 285.42 815.326 285.062C815.545 284.704 815.654 284.314 815.654 283.891V282.541C815.57 282.611 815.426 282.675 815.222 282.735C815.023 282.795 814.799 282.847 814.551 282.892C814.302 282.936 814.056 282.976 813.812 283.011C813.569 283.046 813.357 283.076 813.178 283.1C812.776 283.155 812.415 283.245 812.097 283.369C811.779 283.493 811.528 283.667 811.344 283.891C811.16 284.11 811.068 284.393 811.068 284.741C811.068 285.238 811.249 285.614 811.612 285.867C811.975 286.121 812.438 286.248 812.999 286.248ZM821.061 288V276.545H823.678V278.455H823.798C824.007 277.793 824.365 277.284 824.872 276.926C825.384 276.563 825.968 276.381 826.624 276.381C826.773 276.381 826.94 276.389 827.124 276.404C827.313 276.414 827.469 276.431 827.594 276.456V278.939C827.479 278.9 827.298 278.865 827.049 278.835C826.806 278.8 826.569 278.783 826.341 278.783C825.849 278.783 825.406 278.89 825.013 279.103C824.626 279.312 824.32 279.603 824.096 279.976C823.872 280.349 823.76 280.779 823.76 281.266V288H821.061ZM835.722 276.545V278.634H829.137V276.545H835.722ZM830.763 273.801H833.463V284.555C833.463 284.918 833.517 285.196 833.627 285.39C833.741 285.579 833.89 285.708 834.074 285.778C834.258 285.847 834.462 285.882 834.686 285.882C834.855 285.882 835.009 285.87 835.148 285.845C835.292 285.82 835.401 285.798 835.476 285.778L835.931 287.888C835.787 287.938 835.58 287.993 835.312 288.052C835.048 288.112 834.725 288.147 834.343 288.157C833.666 288.176 833.057 288.075 832.515 287.851C831.974 287.622 831.544 287.269 831.225 286.792C830.912 286.315 830.758 285.718 830.763 285.002V273.801ZM843.308 288V272.727H853.241V275.047H846.075V279.193H852.727V281.512H846.075V285.681H853.301V288H843.308ZM859.241 288.231C858.515 288.231 857.861 288.102 857.28 287.843C856.703 287.58 856.245 287.192 855.907 286.68C855.574 286.168 855.408 285.537 855.408 284.786C855.408 284.14 855.527 283.605 855.766 283.183C856.004 282.76 856.33 282.422 856.743 282.168C857.155 281.915 857.62 281.723 858.137 281.594C858.659 281.46 859.199 281.363 859.755 281.303C860.427 281.234 860.971 281.172 861.389 281.117C861.806 281.057 862.109 280.968 862.298 280.848C862.492 280.724 862.589 280.533 862.589 280.274V280.229C862.589 279.668 862.423 279.233 862.09 278.924C861.756 278.616 861.277 278.462 860.65 278.462C859.989 278.462 859.465 278.606 859.077 278.895C858.694 279.183 858.435 279.523 858.301 279.916L855.781 279.558C855.979 278.862 856.308 278.281 856.765 277.813C857.222 277.341 857.782 276.988 858.443 276.754C859.104 276.516 859.835 276.396 860.635 276.396C861.187 276.396 861.737 276.461 862.283 276.59C862.83 276.719 863.33 276.933 863.782 277.232C864.235 277.525 864.598 277.925 864.871 278.432C865.15 278.939 865.289 279.573 865.289 280.334V288H862.694V286.426H862.604C862.44 286.745 862.209 287.043 861.911 287.321C861.617 287.595 861.247 287.816 860.799 287.985C860.357 288.149 859.837 288.231 859.241 288.231ZM859.942 286.248C860.484 286.248 860.954 286.141 861.351 285.927C861.749 285.708 862.055 285.42 862.269 285.062C862.487 284.704 862.597 284.314 862.597 283.891V282.541C862.512 282.611 862.368 282.675 862.164 282.735C861.965 282.795 861.742 282.847 861.493 282.892C861.244 282.936 860.998 282.976 860.755 283.011C860.511 283.046 860.3 283.076 860.121 283.1C859.718 283.155 859.358 283.245 859.04 283.369C858.721 283.493 858.47 283.667 858.286 283.891C858.102 284.11 858.01 284.393 858.01 284.741C858.01 285.238 858.192 285.614 858.555 285.867C858.918 286.121 859.38 286.248 859.942 286.248ZM868.003 288V276.545H870.621V278.455H870.74C870.949 277.793 871.307 277.284 871.814 276.926C872.326 276.563 872.91 276.381 873.566 276.381C873.716 276.381 873.882 276.389 874.066 276.404C874.255 276.414 874.412 276.431 874.536 276.456V278.939C874.422 278.9 874.24 278.865 873.992 278.835C873.748 278.8 873.512 278.783 873.283 278.783C872.791 278.783 872.348 278.89 871.956 279.103C871.568 279.312 871.262 279.603 871.038 279.976C870.815 280.349 870.703 280.779 870.703 281.266V288H868.003ZM879.029 281.288V288H876.329V276.545H878.91V278.492H879.044C879.307 277.85 879.728 277.341 880.304 276.963C880.886 276.585 881.604 276.396 882.459 276.396C883.25 276.396 883.938 276.565 884.525 276.903C885.117 277.241 885.574 277.731 885.897 278.373C886.225 279.014 886.387 279.792 886.382 280.707V288H883.682V281.124C883.682 280.359 883.484 279.76 883.086 279.327C882.693 278.895 882.149 278.678 881.453 278.678C880.98 278.678 880.56 278.783 880.192 278.991C879.829 279.195 879.544 279.491 879.335 279.879C879.131 280.267 879.029 280.737 879.029 281.288ZM889.126 288V276.545H891.826V288H889.126ZM890.484 274.92C890.056 274.92 889.688 274.778 889.38 274.495C889.072 274.206 888.918 273.861 888.918 273.458C888.918 273.05 889.072 272.705 889.38 272.422C889.688 272.133 890.056 271.989 890.484 271.989C890.916 271.989 891.284 272.133 891.587 272.422C891.896 272.705 892.05 273.05 892.05 273.458C892.05 273.861 891.896 274.206 891.587 274.495C891.284 274.778 890.916 274.92 890.484 274.92ZM897.301 281.288V288H894.602V276.545H897.182V278.492H897.316C897.58 277.85 898 277.341 898.577 276.963C899.158 276.585 899.877 276.396 900.732 276.396C901.522 276.396 902.211 276.565 902.798 276.903C903.389 277.241 903.847 277.731 904.17 278.373C904.498 279.014 904.659 279.792 904.654 280.707V288H901.955V281.124C901.955 280.359 901.756 279.76 901.358 279.327C900.966 278.895 900.421 278.678 899.725 278.678C899.253 278.678 898.833 278.783 898.465 278.991C898.102 279.195 897.816 279.491 897.607 279.879C897.403 280.267 897.301 280.737 897.301 281.288ZM912.38 292.534C911.411 292.534 910.578 292.402 909.882 292.139C909.186 291.88 908.627 291.532 908.204 291.095C907.782 290.657 907.488 290.173 907.324 289.641L909.755 289.051C909.865 289.275 910.024 289.496 910.233 289.715C910.441 289.939 910.722 290.123 911.075 290.267C911.433 290.416 911.883 290.491 912.425 290.491C913.191 290.491 913.825 290.304 914.327 289.931C914.829 289.564 915.08 288.957 915.08 288.112V285.942H914.946C914.806 286.22 914.603 286.506 914.334 286.799C914.071 287.093 913.72 287.339 913.283 287.538C912.85 287.737 912.306 287.836 911.65 287.836C910.77 287.836 909.972 287.63 909.256 287.217C908.545 286.799 907.978 286.178 907.555 285.353C907.138 284.522 906.929 283.483 906.929 282.235C906.929 280.978 907.138 279.916 907.555 279.051C907.978 278.181 908.547 277.522 909.263 277.075C909.979 276.623 910.777 276.396 911.657 276.396C912.328 276.396 912.88 276.511 913.312 276.739C913.75 276.963 914.098 277.234 914.357 277.552C914.615 277.865 914.811 278.161 914.946 278.44H915.095V276.545H917.757V288.186C917.757 289.166 917.523 289.976 917.056 290.618C916.589 291.259 915.95 291.739 915.14 292.057C914.329 292.375 913.409 292.534 912.38 292.534ZM912.403 285.718C912.974 285.718 913.462 285.579 913.864 285.3C914.267 285.022 914.573 284.622 914.782 284.1C914.99 283.578 915.095 282.951 915.095 282.221C915.095 281.5 914.99 280.868 914.782 280.326C914.578 279.784 914.275 279.364 913.872 279.066C913.474 278.763 912.984 278.611 912.403 278.611C911.801 278.611 911.299 278.768 910.896 279.081C910.494 279.394 910.19 279.824 909.987 280.371C909.783 280.913 909.681 281.529 909.681 282.221C909.681 282.922 909.783 283.536 909.987 284.062C910.195 284.585 910.501 284.992 910.904 285.286C911.311 285.574 911.811 285.718 912.403 285.718Z" fill="#D3DAFF"/>
</g>
<path fill-rule="evenodd" clip-rule="evenodd" d="M369.904 216.698C371.141 215.276 372.965 214.375 375 214.375C377.035 214.375 378.859 215.276 380.095 216.698C381.975 216.567 383.903 217.219 385.342 218.658C386.781 220.097 387.434 222.025 387.302 223.905C388.724 225.141 389.625 226.965 389.625 229C389.625 231.035 388.723 232.86 387.302 234.096C387.433 235.975 386.78 237.903 385.341 239.341C383.902 240.78 381.975 241.433 380.096 241.302C378.859 242.724 377.035 243.625 375 243.625C372.965 243.625 371.141 242.724 369.905 241.302C368.025 241.433 366.097 240.781 364.658 239.342C363.219 237.903 362.566 235.975 362.698 234.095C361.276 232.859 360.375 231.035 360.375 229C360.375 226.965 361.276 225.141 362.698 223.905C362.567 222.025 363.219 220.098 364.658 218.659C366.097 217.22 368.025 216.567 369.904 216.698ZM380.415 226.279C380.777 225.773 380.659 225.071 380.154 224.71C379.648 224.348 378.946 224.466 378.585 224.971L373.731 231.765L371.295 229.33C370.856 228.89 370.144 228.89 369.705 229.33C369.265 229.769 369.265 230.481 369.705 230.92L373.08 234.295C373.313 234.529 373.638 234.648 373.968 234.621C374.297 234.594 374.598 234.423 374.79 234.154L380.415 226.279Z" fill="#FF9900"/>
<defs>
<filter id="filter0_d_189_186" x="-4.96335" y="401.073" width="641.927" height="448.356" filterUnits="userSpaceOnUse" color-interpolation-filters="sRGB">
<feFlood flood-opacity="0" result="BackgroundImageFix"/>
<feColorMatrix in="SourceAlpha" type="matrix" values="0 0 0 0 0 0 0 0 0 0 0 0 0 0 0 0 0 0 127 0" result="hardAlpha"/>
<feOffset dy="-4.96335"/>
<feGaussianBlur stdDeviation="2.48168"/>
<feComposite in2="hardAlpha" operator="out"/>
<feColorMatrix type="matrix" values="0 0 0 0 0 0 0 0 0 0 0 0 0 0 0 0 0 0 0.25 0"/>
<feBlend mode="normal" in2="BackgroundImageFix" result="effect1_dropShadow_189_186"/>
<feBlend mode="normal" in="SourceGraphic" in2="effect1_dropShadow_189_186" result="shape"/>
</filter>
<filter id="filter1_d_189_186" x="611.008" y="389.015" width="645.69" height="450.985" filterUnits="userSpaceOnUse" color-interpolation-filters="sRGB">
<feFlood flood-opacity="0" result="BackgroundImageFix"/>
<feColorMatrix in="SourceAlpha" type="matrix" values="0 0 0 0 0 0 0 0 0 0 0 0 0 0 0 0 0 0 127 0" result="hardAlpha"/>
<feOffset dy="-4.99245"/>
<feGaussianBlur stdDeviation="2.49623"/>
<feComposite in2="hardAlpha" operator="out"/>
<feColorMatrix type="matrix" values="0 0 0 0 0 0 0 0 0 0 0 0 0 0 0 0 0 0 0.25 0"/>
<feBlend mode="normal" in2="BackgroundImageFix" result="effect1_dropShadow_189_186"/>
<feBlend mode="normal" in="SourceGraphic" in2="effect1_dropShadow_189_186" result="shape"/>
</filter>
<filter id="filter2_d_189_186" x="71.0734" y="486.01" width="1098.14" height="346.99" filterUnits="userSpaceOnUse" color-interpolation-filters="sRGB">
<feFlood flood-opacity="0" result="BackgroundImageFix"/>
<feColorMatrix in="SourceAlpha" type="matrix" values="0 0 0 0 0 0 0 0 0 0 0 0 0 0 0 0 0 0 127 0" result="hardAlpha"/>
<feOffset dx="3.85311" dy="-5.77966"/>
<feGaussianBlur stdDeviation="2.88983"/>
<feComposite in2="hardAlpha" operator="out"/>
<feColorMatrix type="matrix" values="0 0 0 0 0 0 0 0 0 0 0 0 0 0 0 0 0 0 0.25 0"/>
<feBlend mode="normal" in2="BackgroundImageFix" result="effect1_dropShadow_189_186"/>
<feBlend mode="normal" in="SourceGraphic" in2="effect1_dropShadow_189_186" result="shape"/>
</filter>
<linearGradient id="paint0_linear_189_186" x1="316" y1="411" x2="316" y2="849.429" gradientUnits="userSpaceOnUse">
<stop stop-color="#272626"/>
<stop offset="1" stop-color="#161313"/>
</linearGradient>
<linearGradient id="paint1_linear_189_186" x1="1220.51" y1="399" x2="733.504" y2="917.451" gradientUnits="userSpaceOnUse">
<stop stop-color="#272626"/>
<stop offset="1" stop-color="#161313"/>
</linearGradient>
<linearGradient id="paint2_linear_189_186" x1="126.323" y1="492" x2="397.948" y2="1131.19" gradientUnits="userSpaceOnUse">
<stop stop-color="#272626"/>
<stop offset="1" stop-color="#161313"/>
</linearGradient>
<clipPath id="clip0_189_186">
<rect width="1231" height="807" rx="22.5" fill="white"/>
</clipPath>
</defs>
</svg>
