<svg width="36" height="36" viewBox="0 0 36 36" fill="none" xmlns="http://www.w3.org/2000/svg">
<g clip-path="url(#clip0_169_11417)">
<path d="M21.9656 14.0319C21.5392 13.6029 21.0663 13.2226 20.5559 12.8981C19.2039 12.0323 17.6321 11.5723 16.0267 11.5723C13.7984 11.5681 11.6606 12.4535 10.0877 14.0319L2.4571 21.6685C0.886882 23.2417 0.00433742 25.3733 0.00293143 27.596C-2.1168e-05 32.2344 3.75765 35.9969 8.39603 35.9999C10.6209 36.0076 12.7567 35.1265 14.329 33.5523L20.6279 27.2534C20.7423 27.14 20.8062 26.9852 20.8053 26.824C20.8034 26.4927 20.5332 26.2257 20.2019 26.2276H19.962C18.646 26.2323 17.3417 25.9795 16.1227 25.4838C15.8981 25.3913 15.6399 25.4435 15.4688 25.6157L10.9396 30.1509C9.5332 31.5573 7.25296 31.5573 5.84654 30.1509C4.44012 28.7445 4.44012 26.4643 5.84654 25.0578L13.5072 17.4032C14.9125 15.9997 17.189 15.9997 18.5943 17.4032C19.5414 18.2946 21.0187 18.2946 21.9657 17.4032C22.3731 16.9954 22.6202 16.4545 22.6616 15.8795C22.7054 15.1923 22.4519 14.5193 21.9656 14.0319Z" fill="white"/>
<path d="M33.5377 2.45999C30.2577 -0.819995 24.9398 -0.819995 21.6598 2.45999L15.3669 8.74683C15.1941 8.92047 15.1443 9.18164 15.2409 9.40674C15.3365 9.63247 15.5597 9.77736 15.8048 9.77265H16.0267C17.3412 9.77026 18.6434 10.025 19.86 10.5225C20.0847 10.615 20.3428 10.5628 20.5139 10.3906L25.0311 5.87937C26.4375 4.47295 28.7178 4.47295 30.1242 5.87937C31.5306 7.28579 31.5306 9.56604 30.1242 10.9725L24.4972 16.5934L24.4491 16.6474L22.4815 18.6031C21.0762 20.0066 18.7997 20.0066 17.3944 18.6031C16.4473 17.7118 14.9701 17.7118 14.023 18.6031C13.613 19.014 13.3657 19.5596 13.3271 20.1388C13.2833 20.826 13.5367 21.4989 14.023 21.9865C14.7174 22.6838 15.5298 23.2524 16.4226 23.6662C16.5486 23.7261 16.6745 23.7741 16.8005 23.8281C16.9265 23.8821 17.0585 23.9241 17.1844 23.9721C17.3104 24.0201 17.4424 24.0621 17.5683 24.0981L17.9223 24.194C18.1622 24.254 18.4022 24.302 18.6481 24.344C18.9444 24.388 19.2427 24.416 19.542 24.428H19.9619H19.9979L20.3578 24.386C20.4898 24.38 20.6278 24.35 20.7838 24.35H20.9877L21.4016 24.2901L21.5936 24.2541L21.9416 24.1821H22.0076C23.4811 23.812 24.8267 23.049 25.9008 21.9745L33.5374 14.3379C36.8176 11.0579 36.8176 5.73997 33.5377 2.45999Z" fill="white"/>
</g>
<defs>
<clipPath id="clip0_169_11417">
<rect width="36" height="36" fill="white"/>
</clipPath>
</defs>
</svg>
