<svg width="24" height="24" viewBox="0 0 24 24" fill="none" xmlns="http://www.w3.org/2000/svg">
<path d="M20.5 11.4384L12.4628 19.4644C11.4782 20.4476 10.1427 21 8.75028 21C7.35782 21 6.02239 20.4476 5.03777 19.4644C4.05315 18.4811 3.5 17.1476 3.5 15.7571C3.5 14.3665 4.05315 13.033 5.03777 12.0497L13.075 4.02375C13.7314 3.36825 14.6217 3 15.55 3C16.4783 3 17.3686 3.36825 18.025 4.02375C18.6814 4.67924 19.0502 5.56829 19.0502 6.4953C19.0502 7.42231 18.6814 8.31135 18.025 8.96685L9.97904 16.9928C9.65083 17.3206 9.20569 17.5047 8.74154 17.5047C8.27738 17.5047 7.83224 17.3206 7.50403 16.9928C7.17583 16.6651 6.99144 16.2206 6.99144 15.7571C6.99144 15.2935 7.17583 14.849 7.50403 14.5213L14.929 7.11537" stroke="#B1B1B1" stroke-width="1.5" stroke-linecap="round" stroke-linejoin="round"/>
</svg>
