<svg width="32" height="32" viewBox="0 0 32 32" fill="none" xmlns="http://www.w3.org/2000/svg">
<path fill-rule="evenodd" clip-rule="evenodd" d="M15.9993 30.3332C8.08327 30.3332 1.66602 23.916 1.66602 15.9998C1.66602 8.08376 8.08327 1.6665 15.9993 1.6665C23.9155 1.6665 30.3327 8.08376 30.3327 15.9998C30.3327 23.916 23.9155 30.3332 15.9993 30.3332ZM20.9421 12.9427C21.4628 12.422 21.4628 11.5778 20.9421 11.0571C20.4215 10.5363 19.5773 10.5363 19.0565 11.057L15.9991 14.1142L12.9421 11.0575C12.4214 10.5368 11.5772 10.5369 11.0565 11.0576C10.5358 11.5783 10.5359 12.4225 11.0566 12.9432L14.1133 15.9998L11.0566 19.0565C10.5359 19.5772 10.5358 20.4214 11.0565 20.9421C11.5772 21.4628 12.4214 21.4628 12.9421 20.9421L15.9991 17.8854L19.0565 20.9426C19.5773 21.4633 20.4215 21.4633 20.9421 20.9426C21.4628 20.4218 21.4628 19.5777 20.9421 19.057L17.8848 15.9998L20.9421 12.9427Z" fill="#FF3B30"/>
</svg>
