<svg width="327" height="30" viewBox="0 0 327 30" fill="none" xmlns="http://www.w3.org/2000/svg">
<mask id="path-1-inside-1_106_2342" fill="white">
<path d="M154.934 22.14C153.64 22.14 152.447 21.84 151.354 21.24C150.274 20.6267 149.414 19.78 148.774 18.7C148.147 17.6067 147.834 16.38 147.834 15.02C147.834 13.66 148.147 12.44 148.774 11.36C149.414 10.28 150.274 9.44 151.354 8.84C152.447 8.22667 153.64 7.92 154.934 7.92C156.24 7.92 157.434 8.22667 158.514 8.84C159.607 9.44 160.467 10.28 161.094 11.36C161.72 12.44 162.034 13.66 162.034 15.02C162.034 16.38 161.72 17.6067 161.094 18.7C160.467 19.78 159.607 20.6267 158.514 21.24C157.434 21.84 156.24 22.14 154.934 22.14ZM154.934 20.16C155.854 20.16 156.674 19.9533 157.394 19.54C158.114 19.1133 158.674 18.5133 159.074 17.74C159.487 16.9533 159.694 16.0467 159.694 15.02C159.694 13.9933 159.487 13.0933 159.074 12.32C158.674 11.5467 158.114 10.9533 157.394 10.54C156.674 10.1267 155.854 9.92 154.934 9.92C154.014 9.92 153.194 10.1267 152.474 10.54C151.754 10.9533 151.187 11.5467 150.774 12.32C150.374 13.0933 150.174 13.9933 150.174 15.02C150.174 16.0467 150.374 16.9533 150.774 17.74C151.187 18.5133 151.754 19.1133 152.474 19.54C153.194 19.9533 154.014 20.16 154.934 20.16ZM171.497 22L168.297 16.44H166.557V22H164.277V8.1H169.077C170.144 8.1 171.044 8.28667 171.777 8.66C172.524 9.03333 173.077 9.53333 173.437 10.16C173.811 10.7867 173.997 11.4867 173.997 12.26C173.997 13.1667 173.731 13.9933 173.197 14.74C172.677 15.4733 171.871 15.9733 170.777 16.24L174.217 22H171.497ZM166.557 14.62H169.077C169.931 14.62 170.571 14.4067 170.997 13.98C171.437 13.5533 171.657 12.98 171.657 12.26C171.657 11.54 171.444 10.98 171.017 10.58C170.591 10.1667 169.944 9.96 169.077 9.96H166.557V14.62Z"/>
</mask>
<path d="M154.934 22.14C153.64 22.14 152.447 21.84 151.354 21.24C150.274 20.6267 149.414 19.78 148.774 18.7C148.147 17.6067 147.834 16.38 147.834 15.02C147.834 13.66 148.147 12.44 148.774 11.36C149.414 10.28 150.274 9.44 151.354 8.84C152.447 8.22667 153.64 7.92 154.934 7.92C156.24 7.92 157.434 8.22667 158.514 8.84C159.607 9.44 160.467 10.28 161.094 11.36C161.72 12.44 162.034 13.66 162.034 15.02C162.034 16.38 161.72 17.6067 161.094 18.7C160.467 19.78 159.607 20.6267 158.514 21.24C157.434 21.84 156.24 22.14 154.934 22.14ZM154.934 20.16C155.854 20.16 156.674 19.9533 157.394 19.54C158.114 19.1133 158.674 18.5133 159.074 17.74C159.487 16.9533 159.694 16.0467 159.694 15.02C159.694 13.9933 159.487 13.0933 159.074 12.32C158.674 11.5467 158.114 10.9533 157.394 10.54C156.674 10.1267 155.854 9.92 154.934 9.92C154.014 9.92 153.194 10.1267 152.474 10.54C151.754 10.9533 151.187 11.5467 150.774 12.32C150.374 13.0933 150.174 13.9933 150.174 15.02C150.174 16.0467 150.374 16.9533 150.774 17.74C151.187 18.5133 151.754 19.1133 152.474 19.54C153.194 19.9533 154.014 20.16 154.934 20.16ZM171.497 22L168.297 16.44H166.557V22H164.277V8.1H169.077C170.144 8.1 171.044 8.28667 171.777 8.66C172.524 9.03333 173.077 9.53333 173.437 10.16C173.811 10.7867 173.997 11.4867 173.997 12.26C173.997 13.1667 173.731 13.9933 173.197 14.74C172.677 15.4733 171.871 15.9733 170.777 16.24L174.217 22H171.497ZM166.557 14.62H169.077C169.931 14.62 170.571 14.4067 170.997 13.98C171.437 13.5533 171.657 12.98 171.657 12.26C171.657 11.54 171.444 10.98 171.017 10.58C170.591 10.1667 169.944 9.96 169.077 9.96H166.557V14.62Z" fill="white"/>
<path d="M151.354 21.24L150.86 22.1096L150.866 22.1132L150.873 22.1167L151.354 21.24ZM148.774 18.7L147.906 19.1973L147.91 19.2036L147.913 19.2098L148.774 18.7ZM148.774 11.36L147.913 10.8502L147.909 10.8581L148.774 11.36ZM151.354 8.84L151.839 9.71416L151.843 9.71214L151.354 8.84ZM158.514 8.84L158.02 9.70956L158.026 9.71316L158.033 9.71667L158.514 8.84ZM161.094 11.36L160.229 11.8619L161.094 11.36ZM161.094 18.7L161.959 19.2019L161.961 19.1973L161.094 18.7ZM158.514 21.24L158.999 22.1142L159.003 22.1121L158.514 21.24ZM157.394 19.54L157.892 20.4073L157.904 20.4003L157.394 19.54ZM159.074 17.74L158.188 17.2749L158.186 17.2806L159.074 17.74ZM159.074 12.32L158.185 12.7795L158.192 12.7914L159.074 12.32ZM157.394 10.54L156.896 11.4073V11.4073L157.394 10.54ZM152.474 10.54L152.972 11.4073L152.972 11.4073L152.474 10.54ZM150.774 12.32L149.892 11.8486L149.886 11.8606L150.774 12.32ZM150.774 17.74L149.882 18.1932L149.887 18.2024L149.892 18.2114L150.774 17.74ZM152.474 19.54L151.964 20.4004L151.976 20.4073L152.474 19.54ZM154.934 21.14C153.802 21.14 152.775 20.8794 151.835 20.3633L150.873 22.1167C152.119 22.8006 153.479 23.14 154.934 23.14V21.14ZM151.848 20.3704C150.921 19.844 150.186 19.1221 149.634 18.1902L147.913 19.2098C148.641 20.4379 149.627 21.4093 150.86 22.1096L151.848 20.3704ZM149.641 18.2027C149.108 17.2727 148.834 16.2198 148.834 15.02H146.834C146.834 16.5402 147.186 17.9407 147.906 19.1973L149.641 18.2027ZM148.834 15.02C148.834 13.8201 149.108 12.776 149.639 11.8619L147.909 10.8581C147.186 12.104 146.834 13.4999 146.834 15.02H148.834ZM149.634 11.8698C150.185 10.9397 150.917 10.2266 151.839 9.71416L150.868 7.96584C149.631 8.65338 148.642 9.62027 147.913 10.8502L149.634 11.8698ZM151.843 9.71214C152.782 9.18536 153.806 8.92 154.934 8.92V6.92C153.475 6.92 152.112 7.26797 150.864 7.96786L151.843 9.71214ZM154.934 8.92C156.077 8.92 157.098 9.18623 158.02 9.70956L159.008 7.97044C157.769 7.26711 156.404 6.92 154.934 6.92V8.92ZM158.033 9.71667C158.966 10.2289 159.693 10.9392 160.229 11.8619L161.959 10.8581C161.241 9.62076 160.248 8.65108 158.995 7.96333L158.033 9.71667ZM160.229 11.8619C160.759 12.776 161.034 13.8201 161.034 15.02H163.034C163.034 13.4999 162.682 12.104 161.959 10.8581L160.229 11.8619ZM161.034 15.02C161.034 16.2198 160.759 17.2727 160.226 18.2027L161.961 19.1973C162.682 17.9407 163.034 16.5402 163.034 15.02H161.034ZM160.229 18.1981C159.692 19.1227 158.962 19.8417 158.024 20.3679L159.003 22.1121C160.252 21.4116 161.242 20.4373 161.959 19.2019L160.229 18.1981ZM158.028 20.3658C157.105 20.8785 156.081 21.14 154.934 21.14V23.14C156.4 23.14 157.762 22.8015 158.999 22.1142L158.028 20.3658ZM154.934 21.16C156.009 21.16 157.004 20.9167 157.892 20.4073L156.896 18.6727C156.343 18.9899 155.698 19.16 154.934 19.16V21.16ZM157.904 20.4003C158.791 19.8741 159.48 19.1321 159.962 18.1994L158.186 17.2806C157.868 17.8945 157.436 18.3525 156.884 18.6797L157.904 20.4003ZM159.959 18.2051C160.459 17.2542 160.694 16.1834 160.694 15.02H158.694C158.694 15.9099 158.516 16.6525 158.189 17.2749L159.959 18.2051ZM160.694 15.02C160.694 13.857 160.459 12.7899 159.956 11.8486L158.192 12.7914C158.515 13.3967 158.694 14.1296 158.694 15.02H160.694ZM159.962 11.8606C159.478 10.9254 158.787 10.1865 157.892 9.67275L156.896 11.4073C157.441 11.7202 157.869 12.168 158.186 12.7794L159.962 11.8606ZM157.892 9.67275C157.004 9.16328 156.009 8.92 154.934 8.92V10.92C155.698 10.92 156.343 11.0901 156.896 11.4073L157.892 9.67275ZM154.934 8.92C153.858 8.92 152.863 9.16328 151.976 9.67275L152.972 11.4073C153.524 11.0901 154.169 10.92 154.934 10.92V8.92ZM151.976 9.67275C151.084 10.1848 150.388 10.9197 149.892 11.8486L151.656 12.7914C151.986 12.1737 152.424 11.7219 152.972 11.4073L151.976 9.67275ZM149.886 11.8606C149.4 12.7993 149.174 13.862 149.174 15.02H151.174C151.174 14.1246 151.348 13.3874 151.662 12.7794L149.886 11.8606ZM149.174 15.02C149.174 16.1785 149.4 17.2449 149.882 18.1932L151.665 17.2868C151.347 16.6618 151.174 15.9149 151.174 15.02H149.174ZM149.892 18.2114C150.387 19.1379 151.079 19.8759 151.964 20.4003L152.984 18.6797C152.428 18.3508 151.987 17.8888 151.656 17.2686L149.892 18.2114ZM151.976 20.4073C152.863 20.9167 153.858 21.16 154.934 21.16V19.16C154.169 19.16 153.524 18.9899 152.972 18.6727L151.976 20.4073ZM171.497 22L170.631 22.4988L170.919 23H171.497V22ZM168.297 16.44L169.164 15.9412L168.876 15.44H168.297V16.44ZM166.557 16.44V15.44H165.557V16.44H166.557ZM166.557 22V23H167.557V22H166.557ZM164.277 22H163.277V23H164.277V22ZM164.277 8.1V7.1H163.277V8.1H164.277ZM171.777 8.66L171.324 9.55119L171.33 9.55443L171.777 8.66ZM173.437 10.16L172.57 10.6581L172.574 10.665L172.578 10.6718L173.437 10.16ZM173.197 14.74L172.384 14.1588L172.382 14.1616L173.197 14.74ZM170.777 16.24L170.54 15.2685L169.224 15.5895L169.919 16.7527L170.777 16.24ZM174.217 22V23H175.979L175.076 21.4873L174.217 22ZM166.557 14.62H165.557V15.62H166.557V14.62ZM170.997 13.98L170.301 13.2621L170.296 13.2675L170.29 13.2729L170.997 13.98ZM171.017 10.58L170.322 11.2982L170.327 11.3039L170.333 11.3095L171.017 10.58ZM166.557 9.96V8.96H165.557V9.96H166.557ZM172.364 21.5012L169.164 15.9412L167.431 16.9388L170.631 22.4988L172.364 21.5012ZM168.297 15.44H166.557V17.44H168.297V15.44ZM165.557 16.44V22H167.557V16.44H165.557ZM166.557 21H164.277V23H166.557V21ZM165.277 22V8.1H163.277V22H165.277ZM164.277 9.1H169.077V7.1H164.277V9.1ZM169.077 9.1C170.031 9.1 170.766 9.26737 171.324 9.55116L172.231 7.76884C171.322 7.30596 170.257 7.1 169.077 7.1V9.1ZM171.33 9.55443C171.929 9.85381 172.323 10.2272 172.57 10.6581L174.304 9.66188C173.832 8.83944 173.119 8.21285 172.225 7.76557L171.33 9.55443ZM172.578 10.6718C172.854 11.1343 172.997 11.6556 172.997 12.26H174.997C174.997 11.3178 174.768 10.4391 174.296 9.64819L172.578 10.6718ZM172.997 12.26C172.997 12.9556 172.797 13.5795 172.384 14.1588L174.011 15.3212C174.664 14.4072 174.997 13.3778 174.997 12.26H172.997ZM172.382 14.1616C172.033 14.6527 171.461 15.044 170.54 15.2685L171.014 17.2115C172.281 16.9026 173.321 16.2939 174.013 15.3184L172.382 14.1616ZM169.919 16.7527L173.359 22.5127L175.076 21.4873L171.636 15.7273L169.919 16.7527ZM174.217 21H171.497V23H174.217V21ZM166.557 15.62H169.077V13.62H166.557V15.62ZM169.077 15.62C170.085 15.62 171.024 15.3675 171.704 14.6871L170.29 13.2729C170.117 13.4459 169.777 13.62 169.077 13.62V15.62ZM171.693 14.6979C172.362 14.05 172.657 13.1994 172.657 12.26H170.657C170.657 12.7606 170.513 13.0567 170.301 13.2621L171.693 14.6979ZM172.657 12.26C172.657 11.3321 172.375 10.4818 171.701 9.85046L170.333 11.3095C170.513 11.4782 170.657 11.7479 170.657 12.26H172.657ZM171.713 9.86176C171.029 9.19931 170.085 8.96 169.077 8.96V10.96C169.803 10.96 170.152 11.134 170.322 11.2982L171.713 9.86176ZM169.077 8.96H166.557V10.96H169.077V8.96ZM165.557 9.96V14.62H167.557V9.96H165.557Z" fill="#FF9900" mask="url(#path-1-inside-1_106_2342)"/>
<line x1="191.222" y1="14.5" x2="327" y2="14.5" stroke="#FF9900"/>
<line y1="-0.5" x2="135.779" y2="-0.5" transform="matrix(-1 0 0 1 135.778 15)" stroke="#FF9900"/>
</svg>
