<svg width="30" height="30" viewBox="0 0 30 30" fill="none" xmlns="http://www.w3.org/2000/svg">
<path fill-rule="evenodd" clip-rule="evenodd" d="M14.9993 29.3332C7.08327 29.3332 0.666016 22.916 0.666016 14.9998C0.666016 7.08376 7.08327 0.666504 14.9993 0.666504C22.9155 0.666504 29.3327 7.08376 29.3327 14.9998C29.3327 22.916 22.9155 29.3332 14.9993 29.3332ZM19.9421 11.9427C20.4628 11.422 20.4628 10.5778 19.9421 10.0571C19.4215 9.53634 18.5773 9.53632 18.0565 10.057L14.9991 13.1142L11.9421 10.0575C11.4214 9.53684 10.5772 9.53686 10.0565 10.0576C9.53583 10.5783 9.53586 11.4225 10.0566 11.9432L13.1133 14.9998L10.0566 18.0565C9.53586 18.5772 9.53583 19.4214 10.0565 19.9421C10.5772 20.4628 11.4214 20.4628 11.9421 19.9421L14.9991 16.8854L18.0565 19.9426C18.5773 20.4633 19.4215 20.4633 19.9421 19.9426C20.4628 19.4218 20.4628 18.5777 19.9421 18.057L16.8848 14.9998L19.9421 11.9427Z" fill="white" fill-opacity="0.5"/>
</svg>
