<svg width="30" height="30" viewBox="0 0 30 30" fill="none" xmlns="http://www.w3.org/2000/svg">
<g opacity="0.7">
<path d="M21.0451 0H8.9252C7.78525 0 6.8252 0.93 6.8252 2.1V27.9C6.8252 29.0399 7.7552 30 8.9252 30H21.0752C22.2151 30 23.1752 29.07 23.1752 27.9V2.1C23.1451 0.93 22.2151 0 21.0451 0ZM14.9851 1.65006C15.3151 1.65006 15.5852 1.92018 15.5852 2.25012C15.5852 2.58006 15.3151 2.85018 14.9851 2.85018C14.6552 2.85018 14.3851 2.58006 14.3851 2.25012C14.3851 1.92018 14.6552 1.65006 14.9851 1.65006ZM16.7853 28.3499H13.1854V27.1498H16.7853V28.3499ZM21.9454 25.4701H7.9952V4.52994H21.9454V25.4701Z" fill="white"/>
</g>
</svg>
