<svg width="60" height="60" viewBox="0 0 60 60" fill="none" xmlns="http://www.w3.org/2000/svg">
<circle cx="30" cy="30" r="30" fill="#FF9900"/>
<g clip-path="url(#clip0_169_11406)">
<path d="M45.5878 20.9648C43.9781 18.2071 41.7947 16.0237 39.037 14.4141C36.2793 12.8046 33.2676 12 30.0017 12C26.7359 12 23.7241 12.8046 20.9665 14.4141C18.2084 16.0234 16.025 18.2069 14.4155 20.9648C12.8056 23.7228 12.001 26.7344 12.001 30.0002C12.001 33.641 12.9931 36.9461 14.9775 39.9143C16.9618 42.8837 19.5634 45.0789 22.7823 46.5007C22.7197 44.8289 22.8214 43.4462 23.0868 42.3524L25.4073 32.5548C25.0165 31.789 24.8212 30.8366 24.8212 29.6955C24.8212 28.3676 25.1569 27.2582 25.8289 26.3674C26.5009 25.4767 27.3211 25.0314 28.29 25.0314C29.071 25.0314 29.6725 25.2892 30.0945 25.8047C30.5166 26.3205 30.727 26.9689 30.727 27.7503C30.727 28.2343 30.6368 28.8244 30.457 29.5197C30.2774 30.2151 30.0432 31.0198 29.7542 31.934C29.4651 32.8478 29.2579 33.5788 29.1331 34.1252C28.9144 35.0781 29.094 35.8945 29.6722 36.5747C30.2503 37.2542 31.0162 37.5945 31.9694 37.5945C33.6412 37.5945 35.0121 36.6649 36.0828 34.8057C37.1531 32.9459 37.688 30.688 37.688 28.0319C37.688 25.9846 37.0278 24.3205 35.7072 23.0396C34.3867 21.7582 32.547 21.1172 30.1874 21.1172C27.5472 21.1172 25.4102 21.965 23.7774 23.6603C22.1445 25.3558 21.3281 27.3833 21.3281 29.7426C21.3281 31.149 21.7266 32.3289 22.5234 33.2818C22.7889 33.5942 22.875 33.9301 22.7811 34.2898C22.7499 34.3836 22.6875 34.6179 22.5936 34.9927C22.5002 35.3674 22.4374 35.6102 22.4064 35.7193C22.2815 36.2193 21.9844 36.3755 21.5157 36.1879C20.3127 35.6883 19.3984 34.8208 18.7736 33.5864C18.1486 32.352 17.836 30.922 17.836 29.2974C17.836 28.2505 18.004 27.2036 18.34 26.1569C18.6757 25.1097 19.1994 24.0982 19.9101 23.1215C20.6213 22.1446 21.4728 21.2812 22.4651 20.5316C23.4569 19.7816 24.6641 19.1802 26.086 18.727C27.5079 18.2738 29.0391 18.0473 30.6798 18.0473C32.899 18.0473 34.8908 18.5394 36.6562 19.5238C38.4222 20.5082 39.7695 21.7815 40.6994 23.3441C41.6293 24.9068 42.0939 26.5788 42.0939 28.3601C42.0939 30.7037 41.6877 32.813 40.8755 34.6883C40.0631 36.5632 38.9146 38.0358 37.4298 39.1059C35.9453 40.1766 34.258 40.7117 32.3668 40.7117C31.4139 40.7117 30.5233 40.4889 29.6948 40.0439C28.8669 39.5984 28.2964 39.0714 27.9841 38.4617C27.2809 41.227 26.8589 42.8759 26.7182 43.407C26.4214 44.5159 25.8121 45.7975 24.89 47.2505C26.562 47.7505 28.265 48 29.9995 48C33.2652 48 36.2771 47.1954 39.0347 45.5857C41.7926 43.9765 43.9761 41.7931 45.5852 39.0354C47.1947 36.2772 47.9993 33.2654 47.9993 29.9999C48.0002 26.7344 47.1967 23.7224 45.5878 20.9648Z" fill="white"/>
</g>
<defs>
<clipPath id="clip0_169_11406">
<rect width="36" height="36" fill="white" transform="translate(12 12)"/>
</clipPath>
</defs>
</svg>
