<svg width="28" height="29" viewBox="0 0 28 29" fill="none" xmlns="http://www.w3.org/2000/svg">
<path d="M24.5 20.6981L21 12.5314L17.5 20.6981" stroke="white" stroke-width="1.5" stroke-linecap="round" stroke-linejoin="round"/>
<path d="M10.5 20.6981L7 12.5314L3.5 20.6981" stroke="white" stroke-width="1.5" stroke-linecap="round" stroke-linejoin="round"/>
<path d="M4.08398 12.5312H5.89022C7.36425 12.5312 8.7944 11.9141 9.94544 10.7812C12.3162 8.44792 15.6851 8.44792 18.0559 10.7812C19.2069 11.9141 20.637 12.5312 22.1111 12.5312H23.9173" stroke="white" stroke-width="1.5" stroke-linecap="round" stroke-linejoin="round"/>
<path d="M16.3327 6.69808C16.3327 7.98674 15.288 9.03141 13.9993 9.03141C12.7106 9.03141 11.666 7.98674 11.666 6.69808C11.666 5.40941 12.7106 4.36475 13.9993 4.36475C15.288 4.36475 16.3327 5.40941 16.3327 6.69808Z" stroke="white" stroke-width="1.5" stroke-linecap="round" stroke-linejoin="round"/>
<path d="M7.00065 25.3649C9.57798 25.3649 11.6673 23.2755 11.6673 20.6982H2.33398C2.33398 23.2755 4.42332 25.3649 7.00065 25.3649Z" stroke="white" stroke-width="1.5" stroke-linecap="round" stroke-linejoin="round"/>
<path d="M21.0007 25.3649C23.5779 25.3649 25.6673 23.2755 25.6673 20.6982H16.334C16.334 23.2755 18.4234 25.3649 21.0007 25.3649Z" stroke="white" stroke-width="1.5" stroke-linecap="round" stroke-linejoin="round"/>
</svg>
