<svg width="28" height="29" viewBox="0 0 28 29" fill="none" xmlns="http://www.w3.org/2000/svg">
<path d="M25.6673 14.8649C25.6673 21.3082 20.4439 26.5316 14.0007 26.5316C7.55733 26.5316 2.33398 21.3082 2.33398 14.8649C2.33398 8.42158 7.55733 3.19824 14.0007 3.19824C20.4439 3.19824 25.6673 8.42158 25.6673 14.8649Z" stroke="white" stroke-width="1.5" stroke-linejoin="round"/>
<path d="M14 8.44806V10.1981M14 10.1981C12.2281 10.1981 10.7917 11.2815 10.7917 12.6178C10.7917 13.9543 11.6667 14.6919 14 14.6919C16.3333 14.6919 17.5 15.3833 17.5 17.1117C17.5 18.8401 15.933 19.5314 14 19.5314M14 10.1981C15.7719 10.1981 17.2083 11.2815 17.2083 12.6178M14 19.5314V21.2814M14 19.5314C12.0669 19.5314 10.5 18.4481 10.5 17.1117" stroke="white" stroke-width="1.5" stroke-linecap="round" stroke-linejoin="round"/>
</svg>
