<svg width="169" height="169" viewBox="0 0 169 169" fill="none" xmlns="http://www.w3.org/2000/svg">
<rect width="169" height="169" rx="84.5" fill="url(#paint0_linear_169_11982)" fill-opacity="0.05"/>
<rect x="11" y="11" width="147" height="147" rx="73.5" fill="url(#paint1_linear_169_11982)" fill-opacity="0.1"/>
<rect x="11.5" y="11.5" width="146" height="146" rx="73" stroke="url(#paint2_linear_169_11982)" stroke-opacity="0.2"/>
<path d="M46 64.3333H123M46 64.3333V107.357C46 112.833 46 115.569 47.0491 117.661C47.9718 119.501 49.4432 120.998 51.2543 121.935C53.3112 123 56.0052 123 61.3851 123H107.615C112.995 123 115.685 123 117.742 121.935C119.553 120.998 121.029 119.501 121.952 117.661C123 115.571 123 112.838 123 107.373V64.3333M46 64.3333V60.4232C46 54.9471 46 52.207 47.0491 50.1155C47.9718 48.2756 49.4432 46.7809 51.2543 45.8435C53.3132 44.7778 56.0104 44.7778 61.4009 44.7778H65.25M123 64.3333V60.4071C123 54.9417 123 52.205 121.952 50.1155C121.029 48.2756 119.553 46.7809 117.742 45.8435C115.683 44.7778 112.991 44.7778 107.601 44.7778H103.75M65.25 44.7778H103.75M65.25 44.7778V35M103.75 44.7778V35M96.5312 93.6667H72.4688" stroke="#FF9900" stroke-width="5" stroke-linecap="round" stroke-linejoin="round"/>
<defs>
<linearGradient id="paint0_linear_169_11982" x1="84.5" y1="0" x2="84.5" y2="169" gradientUnits="userSpaceOnUse">
<stop stop-color="#CAFF33"/>
<stop offset="1" stop-color="#CAFF33" stop-opacity="0"/>
</linearGradient>
<linearGradient id="paint1_linear_169_11982" x1="84.5" y1="-86.3378" x2="84.5" y2="390.419" gradientUnits="userSpaceOnUse">
<stop stop-color="#CAFF33"/>
<stop offset="0.467671" stop-color="#CAFF33" stop-opacity="0"/>
</linearGradient>
<linearGradient id="paint2_linear_169_11982" x1="84.5" y1="-244.264" x2="84.5" y2="291.095" gradientUnits="userSpaceOnUse">
<stop stop-color="#CAFF33"/>
<stop offset="0.716291" stop-color="#CAFF33" stop-opacity="0"/>
</linearGradient>
</defs>
</svg>
