<svg width="3840" height="2164" viewBox="0 0 3840 2164" fill="none" xmlns="http://www.w3.org/2000/svg">
<g clip-path="url(#clip0_1_53)">
<path d="M-540 739.96C-540 739.96 -352.536 466.648 -80.392 466.648C191.752 466.648 330.16 974.728 521.128 970.64C712.096 966.552 761.152 759.233 938.104 773.249C1190.98 793.105 1158.86 1106.13 1492.9 1106.13C1826.95 1106.13 2002.74 505.776 2283.06 505.776C2563.38 505.776 2723.39 970.64 3073.21 970.64C3423.02 970.64 3378.06 515.704 3839.42 539.648C3839.42 858.512 3839.42 1541.79 3839.42 1541.79L-540 1614.79V739.96Z" fill="#3452C0"/>
<g style="mix-blend-mode:multiply" opacity="0.2">
<path d="M-353.125 1134.74C-353.125 1134.74 -173.837 861.432 86.627 861.432C347.091 861.432 480.243 1369.51 662.451 1365.42C845.243 1361.34 891.963 1154.02 1061.91 1168.03C1303.68 1187.89 1273.31 1500.91 1593.35 1500.91C1913.38 1500.91 2081.57 900.56 2350.21 900.56C2618.85 900.56 2771.86 1365.42 3106.49 1365.42C3441.12 1365.42 3398.49 910.488 3840 934.432C3840 1253.3 3840 1936.58 3840 1936.58L-353.125 2009.58V1134.74Z" fill="#1C1F66"/>
</g>
<path d="M3839.42 1201.32H-540V2162H3839.42V1201.32Z" fill="#87C1EE"/>
<g style="mix-blend-mode:soft-light" opacity="0.5">
<path d="M3839.42 1201.32H-540V1241.03H3839.42V1201.32Z" fill="white"/>
</g>
<path d="M-540 993.417C-540 993.417 1313.62 1051.82 1999.23 1452.44H-540V993.417Z" fill="#08136C"/>
<path d="M164.294 1128.32L239.63 1077.51L191.158 918.664L157.87 930.344L185.318 901.144L142.686 761.568L88.9584 936.768L117.574 957.792L81.3665 962.464L54.5025 1048.9L117.574 1064.08L45.7425 1077.51L18.2944 1166.86L142.686 1213L267.078 1166.86L248.39 1106.13L164.294 1128.32Z" fill="#08136C"/>
<path d="M-54.6976 1013.86L-13.8176 985.823L-40.6816 898.808L-58.2016 905.231L-43.6016 889.464L-66.9616 812.959L-96.1616 908.735L-80.9776 920.415L-100.25 922.751L-114.85 970.055L-80.9776 978.231L-120.106 985.823L-134.706 1034.88L-66.9616 1059.99L1.36641 1034.88L-9.14556 1001.59L-54.6976 1013.86Z" fill="#08136C"/>
<path d="M406.087 1025.54L453.391 992.832L423.023 892.968L401.999 900.56L419.519 881.872L392.655 793.104L358.783 904.064L376.303 917.496L353.527 920.416L336.591 975.312L376.303 984.656L331.335 993.416L313.815 1050.06L392.655 1078.68L470.911 1050.06L459.231 1011.52L406.087 1025.54Z" fill="#08136C"/>
<path d="M535.15 1203.07L582.454 1170.37L552.086 1069.92L531.062 1077.51L548.582 1058.82L521.718 970.641L487.846 1081.6L505.366 1095.03L482.59 1097.95L465.654 1152.85L505.366 1161.61L460.398 1170.37L442.878 1227.02L521.718 1256.22L599.974 1227.02L588.294 1189.06L535.15 1203.07Z" fill="#08136C"/>
<path d="M753.549 1141.17L835.309 1085.1L782.165 912.825L746.541 925.673L776.325 893.553L730.189 741.129L671.205 932.097L702.157 955.457L663.029 960.129L633.829 1054.74L702.157 1070.5L624.485 1085.69L594.701 1183.22L730.189 1232.86L865.093 1183.22L845.237 1117.22L753.549 1141.17Z" fill="#08136C"/>
<g style="mix-blend-mode:multiply" opacity="0.3">
<path d="M-540 1153.43C-540 1153.43 712.096 1113.72 1224.85 1451.27C216.864 1451.27 -540 1452.44 -540 1452.44V1153.43Z" fill="#1C1F66"/>
</g>
<path d="M215.118 1575.08H-419.106C-428.45 1575.08 -436.042 1567.49 -436.042 1558.14C-436.042 1548.8 -428.45 1541.21 -419.106 1541.21H215.118C224.462 1541.21 232.054 1548.8 232.054 1558.14C232.054 1567.49 224.462 1575.08 215.118 1575.08Z" fill="white"/>
<path d="M584.202 1655.09H-50.0222C-59.3662 1655.09 -66.9583 1647.5 -66.9583 1638.15C-66.9583 1628.81 -59.3662 1621.22 -50.0222 1621.22H584.202C593.546 1621.22 601.138 1628.81 601.138 1638.15C601.138 1647.5 593.546 1655.09 584.202 1655.09Z" fill="white"/>
<path d="M79.035 1867.08H-263.189C-272.533 1867.08 -280.125 1859.49 -280.125 1850.14C-280.125 1840.8 -272.533 1833.21 -263.189 1833.21H79.035C88.379 1833.21 95.971 1840.8 95.971 1850.14C95.971 1859.49 88.379 1867.08 79.035 1867.08Z" fill="white"/>
<path d="M-15.5685 1789.99H-650.377C-659.721 1789.99 -667.312 1782.4 -667.312 1773.06C-667.312 1763.71 -659.721 1756.12 -650.377 1756.12H-16.1525C-6.80854 1756.12 0.783427 1763.71 0.783427 1773.06C0.783427 1782.4 -6.80854 1789.99 -16.1525 1789.99H-15.5685Z" fill="white"/>
<path d="M3840 719.521L3398.49 1029.04C3002.54 1307.03 2547.6 1488.65 2069.31 1557.56C1276.82 1672.03 430.02 1859.49 18.2996 2162H3840V719.521Z" fill="#08136C"/>
<path d="M665.955 1906.21L766.403 1713.49H1294.92" fill="#08136C"/>
<path d="M985.396 1742.11H921.156C900.132 1742.11 882.612 1725.17 882.612 1703.56C882.612 1682.54 899.548 1665.02 921.156 1665.02H985.396C1006.42 1665.02 1023.94 1681.95 1023.94 1703.56C1023.94 1724.59 1007 1742.11 985.396 1742.11Z" fill="#08136C"/>
<g style="mix-blend-mode:multiply" opacity="0.3">
<path d="M3839.99 2162L2171.5 2164.92L3839.99 1274.32V2162Z" fill="#1C1F66"/>
</g>
<g style="mix-blend-mode:multiply" opacity="0.3">
<path d="M1124.99 2162H1892.95L2794.06 1742.1L1124.99 2162Z" fill="#1C1F66"/>
</g>
<path d="M2599.59 1395.79L2719.31 1314.03L2641.63 1059.99L2589.07 1079.26L2632.87 1031.96L2564.55 808.288L2478.7 1089.19L2524.25 1123.06L2466.43 1130.07L2423.8 1268.48L2524.25 1292.42L2409.79 1314.62L2365.99 1457.7L2564.55 1530.7L2763.69 1457.7L2733.91 1360.17L2599.59 1395.79Z" fill="#08136C"/>
<path d="M2953.49 1417.4L3029.41 1365.42L2980.35 1205.41L2947.06 1217.09L2974.51 1187.3L2931.3 1045.98L2876.98 1223.51L2905.6 1244.54L2869.39 1249.21L2842.53 1336.81L2905.6 1351.99L2833.77 1366.01L2805.74 1456.53L2931.3 1502.66L3057.44 1456.53L3038.17 1394.62L2953.49 1417.4Z" fill="#08136C"/>
<path d="M1160.02 1738.02L1207.32 1705.31L1176.96 1604.86L1155.93 1612.46L1173.45 1593.77L1146.59 1505.58L1112.13 1616.54L1130.24 1629.98L1107.46 1632.31L1090.52 1687.21L1130.24 1696.55L1085.27 1705.31L1067.75 1761.96L1146.59 1791.16L1224.84 1761.96L1213.16 1724L1160.02 1738.02Z" fill="#08136C"/>
<path d="M1306.02 1715.24L1344.56 1688.96L1319.45 1607.78L1302.52 1613.62L1316.53 1598.44L1294.92 1527.19L1267.48 1617.13L1282.08 1627.64L1263.39 1629.98L1249.96 1674.36L1282.08 1681.95L1245.28 1688.96L1231.27 1734.51L1294.92 1757.87L1358.58 1734.51L1349.24 1703.56L1306.02 1715.24Z" fill="#08136C"/>
<path d="M3192.93 1132.41L3268.85 1080.43L3219.79 920.416L3186.5 932.096L3213.95 902.312L3170.73 760.984L3116.42 938.52L3145.04 959.544L3108.83 964.216L3081.97 1051.82L3145.04 1067L3072.62 1081.02L3045.17 1171.54L3170.73 1217.67L3296.29 1171.54L3277.61 1109.63L3192.93 1132.41Z" fill="#08136C"/>
<path d="M3542.16 1033.71L3672.98 944.36L3588.3 668.128L3531.07 688.568L3578.96 637.176L3504.2 394.232L3410.76 699.664L3459.82 736.456L3396.75 744.048L3350.61 895.304L3459.82 921L3335.43 944.944L3287.54 1100.87L3504.2 1180.3L3720.87 1100.87L3688.16 995.168L3542.16 1033.71Z" fill="#08136C"/>
<g style="mix-blend-mode:multiply" opacity="0.3">
<path d="M3840 1436.09L3438.21 2162.58L3840 2162V1436.09Z" fill="#1C1F66"/>
</g>
<g style="mix-blend-mode:multiply" opacity="0.3">
<path d="M3139.77 2163.17H2752L3372.21 1900.95L3139.77 2163.17Z" fill="#1C1F66"/>
</g>
<g style="mix-blend-mode:multiply" opacity="0.3">
<path d="M3840 873.112L3184.75 1363.09L3840 1128.9V873.112Z" fill="#1C1F66"/>
</g>
</g>
<defs>
<clipPath id="clip0_1_53">
<rect width="3840" height="2164" fill="white"/>
</clipPath>
</defs>
</svg>
