<svg width="48" height="48" viewBox="0 0 48 48" fill="none" xmlns="http://www.w3.org/2000/svg">
<rect width="48" height="48" rx="12" fill="#FF9900" fill-opacity="0.5"/>
<path fill-rule="evenodd" clip-rule="evenodd" d="M24.5 33.5C30.0228 33.5 34.5 29.0228 34.5 23.5C34.5 17.9772 30.0228 13.5 24.5 13.5C18.9772 13.5 14.5 17.9772 14.5 23.5C14.5 29.0228 18.9772 33.5 24.5 33.5ZM29.092 20.9605C29.3463 20.6335 29.2874 20.1623 28.9605 19.908C28.6335 19.6537 28.1623 19.7126 27.908 20.0396L23.901 25.1914C23.8119 25.306 23.6443 25.3209 23.5364 25.2238L21.0017 22.9426C20.6938 22.6655 20.2196 22.6904 19.9425 22.9983C19.6654 23.3062 19.6904 23.7804 19.9983 24.0575L22.533 26.3387C23.2881 27.0183 24.4613 26.9143 25.085 26.1123L29.092 20.9605Z" fill="#FF9900"/>
</svg>
