<svg width="60" height="60" viewBox="0 0 60 60" fill="none" xmlns="http://www.w3.org/2000/svg">
<circle cx="30" cy="30" r="30" fill="#FF9900"/>
<g clip-path="url(#clip0_169_11411)">
<path d="M50 17.5975C48.5125 18.25 46.9275 18.6825 45.275 18.8925C46.975 17.8775 48.2725 16.2825 48.8825 14.36C47.2975 15.305 45.5475 15.9725 43.6825 16.345C42.1775 14.7425 40.0325 13.75 37.6925 13.75C33.1525 13.75 29.4975 17.435 29.4975 21.9525C29.4975 22.6025 29.5525 23.2275 29.6875 23.8225C22.87 23.49 16.8375 20.2225 12.785 15.245C12.0775 16.4725 11.6625 17.8775 11.6625 19.39C11.6625 22.23 13.125 24.7475 15.305 26.205C13.9875 26.18 12.695 25.7975 11.6 25.195C11.6 25.22 11.6 25.2525 11.6 25.285C11.6 29.27 14.4425 32.58 18.17 33.3425C17.5025 33.525 16.775 33.6125 16.02 33.6125C15.495 33.6125 14.965 33.5825 14.4675 33.4725C15.53 36.72 18.545 39.1075 22.13 39.185C19.34 41.3675 15.7975 42.6825 11.9625 42.6825C11.29 42.6825 10.645 42.6525 10 42.57C13.6325 44.9125 17.9375 46.25 22.58 46.25C37.67 46.25 45.92 33.75 45.92 22.915C45.92 22.5525 45.9075 22.2025 45.89 21.855C47.5175 20.7 48.885 19.2575 50 17.5975Z" fill="white"/>
</g>
<defs>
<clipPath id="clip0_169_11411">
<rect width="40" height="40" fill="white" transform="translate(10 10)"/>
</clipPath>
</defs>
</svg>
