<svg width="19" height="13" viewBox="0 0 19 13" fill="none" xmlns="http://www.w3.org/2000/svg">
<path d="M14.9786 3.3589C15.0295 3.30167 15.055 3.27306 15.0539 3.23904C15.0529 3.20501 15.0259 3.17794 14.9717 3.1238L14.1465 2.29852L14.1336 2.2857C14.0853 2.2377 13.9937 2.14662 13.9249 2.0552C13.8702 1.98247 13.5817 1.59251 13.7873 1.09623C13.9928 0.59995 14.4726 0.52825 14.5627 0.515504C14.676 0.499484 14.8052 0.499853 14.8733 0.50005L16.2711 0.500076C16.6434 0.500007 17.0052 0.49993 17.3036 0.540053C17.64 0.585284 18.0239 0.695479 18.3428 1.01435C18.6617 1.33323 18.7719 1.71712 18.8172 2.05354C18.8573 2.35194 18.8572 2.71373 18.8571 3.08599V4.48395C18.8574 4.552 18.8577 4.68119 18.8417 4.79446C18.8289 4.88455 18.7572 5.36438 18.2609 5.56992C17.7647 5.77547 17.3747 5.48695 17.302 5.43226C17.2105 5.36344 17.1195 5.27189 17.0715 5.22355L17.0586 5.21069L16.4289 4.58093C16.3685 4.52064 16.3385 4.4905 16.3014 4.49158C16.2645 4.49267 16.2362 4.52453 16.1795 4.58826L11.9778 9.31522C11.7479 9.57399 11.5232 9.82685 11.3093 10.0119C11.0674 10.2211 10.7523 10.4232 10.3307 10.4591C9.90928 10.4948 9.56453 10.3488 9.29085 10.1832C9.04879 10.0369 8.78479 9.82556 8.51453 9.6093L6.6627 8.12781C6.56006 8.0457 6.45803 7.96007 6.35311 7.87856C6.22744 7.78084 6.1646 7.73198 6.06853 7.7373C5.97247 7.7427 5.91541 7.79815 5.8013 7.90907C5.70603 8.00173 5.61408 8.09816 5.52114 8.19107L1.46324 12.249C1.1285 12.5837 0.58579 12.5837 0.25105 12.249C-0.0836832 11.9142 -0.0836832 11.3715 0.25105 11.0368L4.33945 6.94838C4.57089 6.71687 4.79836 6.4893 5.01243 6.32387C5.25519 6.13632 5.56554 5.95924 5.96882 5.93695C6.37211 5.91458 6.70011 6.05627 6.96211 6.21587C7.19312 6.35661 7.44433 6.5577 7.69992 6.7623L9.5503 8.24258C9.65899 8.32958 9.76716 8.42044 9.87842 8.50684C10.011 8.60979 10.0773 8.6613 10.1774 8.65273C10.2775 8.64424 10.3342 8.58236 10.4475 8.4585C10.5426 8.35461 10.6338 8.24678 10.7264 8.14273L14.9786 3.3589Z" fill="#00C88C"/>
</svg>
