<svg width="44" height="44" viewBox="0 0 44 44" fill="none" xmlns="http://www.w3.org/2000/svg">
<g clip-path="url(#clip0_169_11672)">
<rect x="1.8335" y="9.16675" width="40.3333" height="25.6667" fill="white"/>
<path d="M41.0667 36.6666H2.93333C1.31389 36.6666 0 35.3527 0 33.7332V10.2666C0 8.64714 1.31389 7.33325 2.93333 7.33325H41.0667C42.6861 7.33325 44 8.64714 44 10.2666V33.7332C44 35.3527 42.6861 36.6666 41.0667 36.6666ZM21.8044 25.3757L21.3657 28.1257C22.3312 28.5388 23.4544 28.7796 24.6339 28.7796C24.728 28.7796 24.8209 28.7784 24.9138 28.7747H24.9003C25.0079 28.7808 25.1326 28.7845 25.2597 28.7845C26.6151 28.7845 27.8716 28.3591 28.9031 27.6344L28.8823 27.6478C29.8186 26.9536 30.4199 25.8524 30.4199 24.6106C30.4199 24.6045 30.4199 24.5984 30.4199 24.5923C30.4199 23.2478 29.5203 22.1319 27.7469 21.269C27.2262 21.0148 26.7813 20.7484 26.3633 20.4477L26.3914 20.4673C26.1494 20.3084 25.9881 20.0456 25.9722 19.7437V19.7413C25.9918 19.4235 26.1739 19.1521 26.4354 19.0079L26.4403 19.0055C26.785 18.805 27.1981 18.6865 27.6406 18.6865C27.6919 18.6865 27.7432 18.6877 27.7946 18.6914H27.7872H27.885C27.9131 18.6914 27.9461 18.6901 27.9791 18.6901C28.7662 18.6901 29.513 18.86 30.1864 19.1644L30.1522 19.1509L30.4382 19.3037L30.877 16.6503C30.052 16.3239 29.095 16.1345 28.094 16.1345C28.0744 16.1345 28.0537 16.1345 28.0341 16.1345H28.0378C27.9596 16.1308 27.8679 16.1284 27.7762 16.1284C26.4367 16.1284 25.1949 16.5525 24.1792 17.2736L24.1988 17.2601C23.2797 17.9153 22.6869 18.9761 22.6869 20.1764V20.1825C22.6747 21.4756 23.606 22.5927 25.4564 23.5069C25.9453 23.7208 26.367 23.9824 26.7447 24.2965L26.7361 24.2891C26.95 24.47 27.0881 24.7353 27.0991 25.0322V25.0347V25.0371C27.0991 25.427 26.8669 25.7619 26.532 25.9123L26.5259 25.9147C26.1592 26.1078 25.7241 26.2202 25.2621 26.2202C25.2438 26.2202 25.2242 26.2202 25.2059 26.2202H25.2083C25.1814 26.2202 25.1484 26.2202 25.1167 26.2202C24.0692 26.2202 23.0768 25.988 22.187 25.5725L22.2298 25.5908L21.8106 25.3806L21.8044 25.3757ZM34.1794 26.7703H38.2311C38.2963 27.0497 38.4238 27.6608 38.6137 28.6036H41.5556L38.9962 16.3435H36.5518C36.509 16.3398 36.4589 16.3374 36.4076 16.3374C35.7207 16.3374 35.1328 16.7627 34.8932 17.364L34.8896 17.375L30.1962 28.6036H33.5207L34.188 26.7715L34.1794 26.7703ZM18.2001 16.3435L16.2128 28.6036H19.3832L21.3693 16.3435H18.2001ZM6.01578 18.8454L8.59467 28.584H11.9362L16.9168 16.3435H13.5606L10.4634 24.7084L10.1383 23.0083L9.03344 17.375C8.92222 16.7774 8.40522 16.33 7.78311 16.33C7.71956 16.33 7.656 16.3349 7.59489 16.3435L7.60222 16.3423H2.48478L2.44689 16.5904C6.38733 17.5914 8.976 19.751 10.142 23.007C9.76433 22.039 9.21311 21.214 8.52133 20.5333L8.52011 20.532C7.82711 19.8207 6.99478 19.2499 6.06711 18.86L6.01822 18.8417L6.01578 18.8454ZM37.7166 24.2488H35.0766C35.255 23.7778 35.6754 22.6371 36.3379 20.8266L36.3941 20.6543C36.4454 20.5271 36.509 20.3609 36.5897 20.158C36.6703 19.9551 36.7241 19.7889 36.7608 19.6618L36.9906 20.7117L37.7153 24.2439L37.7166 24.2488Z" fill="#1D1D1D"/>
</g>
<defs>
<clipPath id="clip0_169_11672">
<rect width="44" height="44" fill="white"/>
</clipPath>
</defs>
</svg>
