<svg width="21" height="21" viewBox="0 0 21 21" fill="none" xmlns="http://www.w3.org/2000/svg">
<rect width="20.25" height="20.25" rx="6.75" fill="#FF9900" fill-opacity="0.5"/>
<path d="M8.94375 13.6687L14.8922 7.72031L13.7109 6.53906L8.94375 11.3063L6.53906 8.90156L5.35781 10.0828L8.94375 13.6687ZM4.21875 17.7188C3.75469 17.7188 3.35742 17.5535 3.02695 17.223C2.69648 16.8926 2.53125 16.4953 2.53125 16.0312V4.21875C2.53125 3.75469 2.69648 3.35742 3.02695 3.02695C3.35742 2.69648 3.75469 2.53125 4.21875 2.53125H16.0312C16.4953 2.53125 16.8926 2.69648 17.223 3.02695C17.5535 3.35742 17.7188 3.75469 17.7188 4.21875V16.0312C17.7188 16.4953 17.5535 16.8926 17.223 17.223C16.8926 17.5535 16.4953 17.7188 16.0312 17.7188H4.21875ZM4.21875 16.0312H16.0312V4.21875H4.21875V16.0312Z" fill="#1D1B20"/>
</svg>
