<svg width="66" height="75" viewBox="0 0 66 75" fill="none" xmlns="http://www.w3.org/2000/svg">
<rect x="7.92188" width="50.6806" height="50.6806" rx="25.3403" fill="#FF9900"/>
<path fill-rule="evenodd" clip-rule="evenodd" d="M16.3379 24.8311C16.3379 15.4005 23.7292 8.41528 33.2614 8.41528C42.7936 8.41528 50.185 15.4047 50.185 24.8354C50.185 34.266 42.7936 41.2512 33.2614 41.2512C31.5479 41.2512 29.9063 41.0227 28.3621 40.5996C28.0617 40.5192 27.7401 40.5404 27.4567 40.6673L24.0973 42.1481C23.2173 42.5374 22.2273 41.9112 22.1977 40.9508L22.1046 37.9384C22.0961 37.5661 21.9269 37.2192 21.6519 36.9738C18.3603 34.0291 16.3379 29.7643 16.3379 24.8311ZM28.0701 21.7469L23.0988 29.6333C22.6207 30.3906 23.5515 31.241 24.2623 30.6994L29.6016 26.6463C29.9613 26.3712 30.4605 26.3712 30.8244 26.642L34.7802 29.6079C35.9691 30.4964 37.6615 30.1875 38.4526 28.9309L43.4281 21.0488C43.902 20.2915 42.9712 19.4368 42.2604 19.9784L36.9211 24.0316C36.5614 24.3066 36.0622 24.3066 35.6983 24.0358L31.7425 21.0699C30.5536 20.1815 28.8612 20.4903 28.0701 21.7469Z" fill="#1C1D1D"/>
<path d="M2.51916 70.7487V60.1057H3.67467L7.7646 66.75L7.21725 66.7348L11.3528 60.1057H12.4323V70.7487H11.2464V65.8833C11.2464 64.9711 11.2616 64.15 11.292 63.4202C11.3224 62.6904 11.3781 61.9657 11.4592 61.246L11.6721 61.6718L7.85582 67.6622H7.03479L3.32498 61.7478L3.49222 61.246C3.57331 61.9252 3.62906 62.6246 3.65947 63.3442C3.68988 64.0538 3.70508 64.9001 3.70508 65.8833V70.7487H2.51916ZM18.6112 70.9007C17.8206 70.9007 17.1162 70.7284 16.4978 70.3838C15.8897 70.0391 15.4133 69.5577 15.0687 68.9394C14.724 68.3211 14.5517 67.6115 14.5517 66.8108C14.5517 66.1925 14.648 65.635 14.8406 65.1383C15.0332 64.6315 15.3018 64.1906 15.6464 63.8156C16.0012 63.4405 16.4218 63.1516 16.9084 62.9489C17.3949 62.7361 17.922 62.6296 18.4896 62.6296C19.0268 62.6296 19.5133 62.7259 19.9492 62.9185C20.3952 63.1111 20.7753 63.3797 21.0895 63.7243C21.4139 64.0588 21.6571 64.4592 21.8193 64.9255C21.9815 65.3917 22.0524 65.9036 22.0322 66.4611L22.017 66.9932H15.4031L15.2359 66.0354H21.1503L20.8767 66.2938V65.9289C20.8564 65.564 20.7499 65.2143 20.5574 64.8798C20.3648 64.5352 20.0911 64.2565 19.7363 64.0436C19.3917 63.8308 18.9761 63.7243 18.4896 63.7243C17.922 63.7243 17.4304 63.8409 17.0148 64.074C16.5992 64.297 16.2799 64.6315 16.0569 65.0775C15.8339 65.5235 15.7224 66.0759 15.7224 66.7348C15.7224 67.3632 15.8441 67.9105 16.0873 68.3768C16.3306 68.8329 16.6752 69.1877 17.1212 69.4411C17.5773 69.6945 18.1247 69.8212 18.7633 69.8212C19.1383 69.8212 19.5083 69.7604 19.8732 69.6388C20.2482 69.507 20.6587 69.2536 21.1047 68.8785L21.6977 69.6996C21.4645 69.9327 21.1858 70.1405 20.8614 70.3229C20.5371 70.4953 20.1823 70.6372 19.7972 70.7487C19.412 70.85 19.0167 70.9007 18.6112 70.9007ZM26.2517 70.9007C25.5726 70.9007 24.9644 70.774 24.4272 70.5206C23.89 70.2672 23.4643 69.9327 23.15 69.5171L23.9559 68.8177C24.2498 69.1725 24.5944 69.4411 24.9897 69.6235C25.3952 69.806 25.8462 69.8972 26.3429 69.8972C26.5963 69.8972 26.8244 69.8719 27.0271 69.8212C27.2298 69.7604 27.4072 69.6742 27.5592 69.5627C27.7113 69.4512 27.8278 69.3195 27.9089 69.1674C27.99 69.0154 28.0306 68.8481 28.0306 68.6657C28.0306 68.3312 27.8836 68.0525 27.5897 67.8295C27.4579 67.7382 27.2704 67.647 27.0271 67.5558C26.7838 67.4544 26.4899 67.3581 26.1453 67.2669C25.5776 67.1047 25.1063 66.9425 24.7313 66.7804C24.3562 66.6081 24.0623 66.4104 23.8494 66.1874C23.6974 66.005 23.5808 65.8073 23.4997 65.5944C23.4288 65.3816 23.3933 65.1485 23.3933 64.895C23.3933 64.5707 23.4592 64.2717 23.591 63.998C23.7329 63.7243 23.9254 63.4861 24.1687 63.2834C24.4221 63.0705 24.7161 62.9134 25.0506 62.8121C25.3952 62.7006 25.7651 62.6448 26.1605 62.6448C26.5355 62.6448 26.9055 62.6955 27.2704 62.7969C27.6353 62.8982 27.9748 63.0452 28.289 63.2378C28.6033 63.4304 28.8719 63.6584 29.0949 63.922L28.3955 64.6822C28.2029 64.4795 27.99 64.297 27.7569 64.1348C27.5238 63.9727 27.2754 63.846 27.0119 63.7547C26.7585 63.6635 26.4949 63.6179 26.2213 63.6179C25.978 63.6179 25.7499 63.6483 25.5371 63.7091C25.3344 63.7699 25.157 63.8561 25.0049 63.9676C24.863 64.069 24.7515 64.1957 24.6704 64.3477C24.5995 64.4997 24.564 64.667 24.564 64.8494C24.564 65.0015 24.5944 65.1383 24.6552 65.2599C24.7161 65.3816 24.8022 65.488 24.9137 65.5792C25.0556 65.6907 25.2533 65.7972 25.5067 65.8985C25.7702 65.9898 26.0946 66.086 26.4797 66.1874C26.9257 66.309 27.3008 66.4357 27.6049 66.5675C27.9191 66.6891 28.1775 66.8361 28.3803 67.0084C28.6539 67.2112 28.8465 67.4443 28.958 67.7078C29.0797 67.9714 29.1405 68.2704 29.1405 68.6049C29.1405 69.0509 29.0138 69.4462 28.7604 69.7908C28.5171 70.1354 28.1775 70.4091 27.7417 70.6118C27.3058 70.8044 26.8092 70.9007 26.2517 70.9007ZM33.5271 70.9007C32.848 70.9007 32.2398 70.774 31.7026 70.5206C31.1654 70.2672 30.7397 69.9327 30.4255 69.5171L31.2313 68.8177C31.5252 69.1725 31.8699 69.4411 32.2652 69.6235C32.6706 69.806 33.1217 69.8972 33.6183 69.8972C33.8717 69.8972 34.0998 69.8719 34.3025 69.8212C34.5053 69.7604 34.6826 69.6742 34.8347 69.5627C34.9867 69.4512 35.1033 69.3195 35.1844 69.1674C35.2655 69.0154 35.306 68.8481 35.306 68.6657C35.306 68.3312 35.159 68.0525 34.8651 67.8295C34.7333 67.7382 34.5458 67.647 34.3025 67.5558C34.0593 67.4544 33.7653 67.3581 33.4207 67.2669C32.8531 67.1047 32.3817 66.9425 32.0067 66.7804C31.6317 66.6081 31.3377 66.4104 31.1249 66.1874C30.9728 66.005 30.8563 65.8073 30.7752 65.5944C30.7042 65.3816 30.6687 65.1485 30.6687 64.895C30.6687 64.5707 30.7346 64.2717 30.8664 63.998C31.0083 63.7243 31.2009 63.4861 31.4441 63.2834C31.6975 63.0705 31.9915 62.9134 32.326 62.8121C32.6706 62.7006 33.0406 62.6448 33.4359 62.6448C33.8109 62.6448 34.1809 62.6955 34.5458 62.7969C34.9107 62.8982 35.2503 63.0452 35.5645 63.2378C35.8787 63.4304 36.1473 63.6584 36.3703 63.922L35.6709 64.6822C35.4783 64.4795 35.2655 64.297 35.0323 64.1348C34.7992 63.9727 34.5509 63.846 34.2873 63.7547C34.0339 63.6635 33.7704 63.6179 33.4967 63.6179C33.2534 63.6179 33.0254 63.6483 32.8125 63.7091C32.6098 63.7699 32.4324 63.8561 32.2804 63.9676C32.1385 64.069 32.027 64.1957 31.9459 64.3477C31.8749 64.4997 31.8395 64.667 31.8395 64.8494C31.8395 65.0015 31.8699 65.1383 31.9307 65.2599C31.9915 65.3816 32.0777 65.488 32.1892 65.5792C32.3311 65.6907 32.5287 65.7972 32.7821 65.8985C33.0457 65.9898 33.37 66.086 33.7552 66.1874C34.2012 66.309 34.5762 66.4357 34.8803 66.5675C35.1945 66.6891 35.453 66.8361 35.6557 67.0084C35.9294 67.2112 36.122 67.4443 36.2335 67.7078C36.3551 67.9714 36.4159 68.2704 36.4159 68.6049C36.4159 69.0509 36.2892 69.4462 36.0358 69.7908C35.7925 70.1354 35.453 70.4091 35.0171 70.6118C34.5813 70.8044 34.0846 70.9007 33.5271 70.9007ZM41.3043 70.9007C40.615 70.9007 39.9917 70.7233 39.4342 70.3686C38.8767 70.0037 38.4358 69.5121 38.1114 68.8937C37.7871 68.2653 37.6249 67.5558 37.6249 66.7652C37.6249 65.9644 37.7921 65.2549 38.1266 64.6366C38.4611 64.0183 38.9071 63.5317 39.4646 63.177C40.0322 62.8222 40.6657 62.6448 41.3651 62.6448C41.7807 62.6448 42.1659 62.7056 42.5206 62.8273C42.8754 62.9489 43.1896 63.1212 43.4633 63.3442C43.7471 63.5571 43.9802 63.8105 44.1627 64.1044C44.3553 64.3882 44.487 64.6974 44.558 65.0319L44.2235 64.8646L44.2691 62.8121H45.4094V70.7487H44.2539V68.8025L44.558 68.6049C44.487 68.909 44.3502 69.2029 44.1475 69.4867C43.9448 69.7604 43.6964 70.0037 43.4025 70.2165C43.1187 70.4294 42.7943 70.5966 42.4294 70.7182C42.0746 70.8399 41.6996 70.9007 41.3043 70.9007ZM41.5628 69.806C42.0898 69.806 42.5612 69.6793 42.9768 69.4259C43.3923 69.1624 43.7167 68.8025 43.9498 68.3464C44.1931 67.8801 44.3147 67.3531 44.3147 66.7652C44.3147 66.1773 44.1931 65.6553 43.9498 65.1991C43.7167 64.743 43.3923 64.3832 42.9768 64.1196C42.5612 63.8561 42.0898 63.7243 41.5628 63.7243C41.0255 63.7243 40.5492 63.8561 40.1336 64.1196C39.7281 64.3832 39.4038 64.743 39.1605 65.1991C38.9274 65.6553 38.8108 66.1773 38.8108 66.7652C38.8108 67.3429 38.9274 67.8649 39.1605 68.3312C39.3936 68.7873 39.718 69.1472 40.1336 69.4107C40.5492 69.6742 41.0255 69.806 41.5628 69.806ZM51.0519 74.2456C50.4641 74.2456 49.9066 74.1544 49.3795 73.9719C48.8524 73.7895 48.4166 73.5614 48.0719 73.2878L48.5281 72.3299C48.7308 72.4921 48.9639 72.634 49.2274 72.7556C49.5011 72.8874 49.7951 72.9887 50.1093 73.0597C50.4235 73.1408 50.7428 73.1813 51.0672 73.1813C51.655 73.1813 52.1517 73.0698 52.5572 72.8468C52.9727 72.634 53.287 72.3147 53.4998 71.889C53.7228 71.4633 53.8343 70.9362 53.8343 70.3077V68.7873L54.0168 68.7417C53.9255 69.1269 53.7279 69.4867 53.4238 69.8212C53.1197 70.1456 52.7497 70.4091 52.3139 70.6118C51.878 70.8044 51.4168 70.9007 50.9303 70.9007C50.1904 70.9007 49.5265 70.7233 48.9386 70.3686C48.3608 70.0138 47.9047 69.5273 47.5702 68.909C47.2357 68.2805 47.0685 67.571 47.0685 66.7804C47.0685 65.9796 47.2357 65.2701 47.5702 64.6518C47.9148 64.0233 48.376 63.5317 48.9538 63.177C49.5315 62.8222 50.1802 62.6448 50.8999 62.6448C51.2141 62.6448 51.5182 62.6854 51.8122 62.7665C52.1061 62.8374 52.3747 62.9438 52.618 63.0858C52.8714 63.2277 53.0994 63.3898 53.3022 63.5723C53.5049 63.7547 53.6721 63.9524 53.8039 64.1652C53.9458 64.3781 54.0472 64.596 54.108 64.819L53.7887 64.7734L53.8343 62.8121H54.9746V70.2621C54.9746 70.9007 54.8834 71.4633 54.7009 71.9498C54.5185 72.4465 54.2499 72.862 53.8951 73.1965C53.5505 73.5412 53.1349 73.7996 52.6484 73.9719C52.172 74.1544 51.6398 74.2456 51.0519 74.2456ZM51.0672 69.806C51.6044 69.806 52.0808 69.6793 52.4963 69.4259C52.9221 69.1624 53.2566 68.8025 53.4998 68.3464C53.7431 67.8903 53.8647 67.3632 53.8647 66.7652C53.8647 66.1773 53.7431 65.6553 53.4998 65.1991C53.2667 64.743 52.9373 64.3832 52.5115 64.1196C52.0858 63.8561 51.6044 63.7243 51.0672 63.7243C50.5198 63.7243 50.0333 63.8561 49.6076 64.1196C49.192 64.3832 48.8625 64.743 48.6193 65.1991C48.376 65.6553 48.2544 66.1773 48.2544 66.7652C48.2544 67.3429 48.3709 67.8649 48.6041 68.3312C48.8473 68.7873 49.1768 69.1472 49.5923 69.4107C50.0181 69.6742 50.5097 69.806 51.0672 69.806ZM60.69 70.9007C59.8994 70.9007 59.1949 70.7284 58.5766 70.3838C57.9684 70.0391 57.492 69.5577 57.1474 68.9394C56.8028 68.3211 56.6305 67.6115 56.6305 66.8108C56.6305 66.1925 56.7267 65.635 56.9193 65.1383C57.1119 64.6315 57.3805 64.1906 57.7252 63.8156C58.0799 63.4405 58.5006 63.1516 58.9871 62.9489C59.4736 62.7361 60.0007 62.6296 60.5683 62.6296C61.1055 62.6296 61.5921 62.7259 62.0279 62.9185C62.4739 63.1111 62.854 63.3797 63.1682 63.7243C63.4926 64.0588 63.7359 64.4592 63.898 64.9255C64.0602 65.3917 64.1312 65.9036 64.1109 66.4611L64.0957 66.9932H57.4819L57.3146 66.0354H63.2291L62.9554 66.2938V65.9289C62.9351 65.564 62.8287 65.2143 62.6361 64.8798C62.4435 64.5352 62.1698 64.2565 61.8151 64.0436C61.4704 63.8308 61.0549 63.7243 60.5683 63.7243C60.0007 63.7243 59.5091 63.8409 59.0935 64.074C58.6779 64.297 58.3587 64.6315 58.1357 65.0775C57.9127 65.5235 57.8012 66.0759 57.8012 66.7348C57.8012 67.3632 57.9228 67.9105 58.1661 68.3768C58.4093 68.8329 58.754 69.1877 59.2 69.4411C59.6561 69.6945 60.2034 69.8212 60.842 69.8212C61.217 69.8212 61.587 69.7604 61.9519 69.6388C62.327 69.507 62.7375 69.2536 63.1835 68.8785L63.7764 69.6996C63.5433 69.9327 63.2645 70.1405 62.9402 70.3229C62.6158 70.4953 62.2611 70.6372 61.8759 70.7487C61.4907 70.85 61.0954 70.9007 60.69 70.9007Z" fill="white"/>
</svg>
